<?xml version="1.0" encoding="utf-8"?>
<!DOCTYPE svg PUBLIC "-//W3C//DTD SVG 20010904//EN" "http://www.w3.org/TR/2001/REC-SVG-20010904/DTD/svg10.dtd">
<svg version="1.0" xmlns="http://www.w3.org/2000/svg" width="800px" height="800px" viewBox="0 0 800 800" preserveAspectRatio="xMidYMid meet">
 <g fill="#fee6c2">
  <path d="M0 400 l0 -400 400 0 400 0 0 400 0 400 -89.1 0 -89.2 0 0.7 -7.7 c3.8 -41 3.5 -50.2 -3 -78.8 -1.8 -7.7 -6.9 -19 -12.7 -27.6 -4.5 -6.9 -15.9 -17.7 -19.5 -18.6 -1.5 -0.3 -2.9 -0.9 -3.2 -1.3 -1.1 -1.5 -9 -5 -11.5 -5 -1.4 0 -2.5 -0.4 -2.5 -1 0 -0.5 -1.3 -1 -3 -1 -1.6 0 -3 -0.4 -3 -1 0 -0.5 -1.5 -1 -3.3 -1 -1.8 0 -3.7 -0.4 -4.3 -1 -1.3 -1.3 -13.3 -3.7 -22.9 -4.5 -8.4 -0.7 -35.4 -4.2 -39.2 -5 -1.3 -0.3 -2.3 -1.2 -2.3 -2.1 0 -0.9 -0.8 -2.9 -1.7 -4.5 -1.6 -2.7 -1.6 -3.6 0 -15.6 2.3 -16.6 2.2 -18.7 -1.1 -25.2 -5.3 -10.6 -16.6 -14.9 -30.8 -11.6 -10.2 2.5 -10.8 2.2 -11.2 -4.8 -0.3 -5.6 -0.9 -6.6 -2.7 -4.8 -1.5 1.3 -12 4.6 -20.8 6.5 l-7.7 1.7 5.9 3 c7.1 3.5 17.7 13.1 22 19.7 2.9 4.5 3.1 5.6 3.1 13.5 l0 8.5 -3.2 2 c-4.3 2.6 -14.9 6.8 -21.8 8.5 -8.6 2.3 -23.8 4 -28.6 3.2 -4.2 -0.6 -4.4 -0.8 -4.4 -4.1 0 -2.5 -1.4 -5.5 -4.8 -10.7 -2.7 -4 -7 -11.2 -9.7 -16.1 -4 -7.4 -4.9 -8.6 -5.6 -7 -0.4 1.3 -6.1 4.7 -16.5 9.8 -17.7 8.8 -32.7 18 -32.2 19.9 0.2 0.6 2.8 2.4 5.8 4 3 1.5 7.6 4.6 10.3 6.8 l4.9 4.2 -0.6 8.1 c-0.3 4.5 -0.8 10.1 -1.2 12.6 l-0.6 4.5 -9.6 4.8 c-15.4 7.6 -38.2 21.9 -38.2 24 0 1.2 -0.8 1.7 -2.6 1.7 -2.5 0 -6.7 2.4 -10.8 6.2 -1.1 1 -2.6 1.8 -3.3 1.8 -0.7 0 -1.7 0.9 -2.3 2 -0.6 1.1 -1.7 2 -2.5 2 -0.7 0 -2.3 1.4 -3.5 3.1 -1.3 1.7 -3.3 3.4 -4.6 3.9 -1.3 0.5 -2.4 1.6 -2.4 2.5 0 0.8 -0.7 1.5 -1.5 1.5 -0.9 0 -2 1.1 -2.5 2.5 -0.5 1.4 -1.6 2.5 -2.5 2.5 -0.8 0 -1.5 0.7 -1.5 1.5 0 0.8 -0.6 1.5 -1.3 1.5 -1.6 0 -5.1 3.7 -6 6.3 -0.4 0.9 -1.3 1.7 -2.2 1.7 -0.8 0 -1.5 0.6 -1.5 1.3 -0.1 0.6 -2.3 3.7 -5 6.6 -2.7 3 -5.7 7 -6.7 8.8 -1 1.8 -2.3 3.3 -3 3.3 -0.7 0 -1.3 0.9 -1.3 2 0 1.1 -0.7 2.3 -1.5 2.6 -0.8 0.4 -1.5 1.2 -1.5 2 0 1.3 -1.6 5.2 -5.5 13.9 -0.8 1.7 -1.7 4.5 -2 6.3 -0.4 1.7 -1.1 3.2 -1.6 3.2 -0.5 0 -0.9 0.9 -0.9 2 0 2 -0.7 2 -105.5 2 l-105.5 0 0 -400z m369.4 197.5 c0.4 -1 -0.1 -1.5 -1.5 -1.5 -1.7 0 -1.8 0.2 -0.7 1.5 1.6 1.8 1.5 1.8 2.2 0z m-103.9 -47.1 c3.2 -1.8 8.1 -5.4 10.7 -8 5.2 -5.2 11.5 -16.4 12.4 -22.6 0.6 -3.7 0.7 -3.8 5 -3.8 4.4 0 4.4 0 4.4 -3.5 0 -3.2 -0.2 -3.5 -3.1 -3.5 -3.9 0 -5.4 -1.6 -6.9 -7.1 -5.1 -18.8 -22.4 -32.5 -43.7 -34.5 -5.1 -0.4 -6.8 -0.1 -14.3 3.2 -4.7 2 -10.2 3.9 -12.2 4.1 -3.6 0.5 -3.8 0.7 -3.8 3.9 0 2 -0.5 3.4 -1.2 3.4 -1.6 0.1 -7.2 7.5 -9.9 13 -1.1 2.3 -2.7 7.2 -3.4 10.9 -1.2 5.6 -1.2 7.6 0 13.2 1.8 9 5.7 16.4 11.8 22.7 9.1 9.3 22.4 15.2 34.5 15.2 4 0 6.2 0.6 9 2.5 l3.7 2.5 0.5 -4.1 c0.5 -3.9 0.9 -4.4 6.5 -7.5z m228 -10.6 c15.7 -16.5 27.4 -32.5 35.4 -48.5 2.9 -5.9 3.4 -6.3 6.5 -6.3 2.7 0 3.6 0.5 4.1 2.3 0.9 2.9 4.3 6.5 7.8 8.4 5.2 2.6 10.7 -1 20.8 -13.7 5.9 -7.4 14.3 -24.7 17.9 -37 4.4 -14.7 3.7 -28.7 -1.7 -35.8 -3 -4 -2.8 -7.4 1.2 -17.7 2.6 -7 7.5 -23.9 7.5 -25.9 -0.1 -0.6 -1 1.2 -2 3.9 -1.9 4.8 -4.5 9.9 -6.2 12 -0.5 0.6 -2 2.6 -3.4 4.5 -3.7 5.2 -13.5 15 -16.6 16.6 -1.6 0.8 -2.8 1.6 -2.8 1.7 0 0.1 2.4 0.1 5.3 -0.1 5.1 -0.4 5.4 -0.2 9.7 4.2 5.6 5.7 7.8 11.5 8.6 21.9 0.5 6.5 0.2 9.8 -1.4 15.7 -4.4 16.5 -11.6 26.7 -25.4 35.6 -5.4 3.6 -7.5 4.4 -11.2 4.4 -2.4 0 -4.8 -0.5 -5.1 -1 -0.4 -0.6 -0.9 -4.5 -1.2 -8.8 -0.5 -5.6 -1.2 -8.7 -3 -11.4 -1.3 -2.1 -2.6 -3.8 -3 -3.8 -1.6 0 -5.3 4.5 -5.3 6.6 0 8 -6.2 27 -12 36.9 -5.3 8.9 -11.3 18.4 -13.3 21.1 -1.8 2.4 -5.6 3.1 -9.1 1.8 -2.1 -0.8 -2.1 -6 -0.1 -10.7 2.4 -5.8 1.9 -16.3 -1 -23.6 -5.3 -13 -11.6 -19.8 -23.8 -25.9 -15.3 -7.6 -24.6 -7.6 -38.8 0 -10.2 5.4 -16.8 12.3 -21.7 22.5 -3.3 7.1 -3.7 8.6 -3.7 16.3 0 7.1 0.5 9.8 2.9 15.7 5.1 12.7 16.7 23.1 30.4 27.3 9.9 3.1 19.4 2.4 28.5 -2 2.2 -1.1 5.8 -2 7.9 -2 3.7 0 3.8 0.1 3.8 3.6 l0 3.5 2.8 -1.9 c1.5 -1.1 6.3 -5.8 10.7 -10.4z m-149.7 -55.5 c-1 -0.2 -2.8 -0.2 -4 0 -1.3 0.2 -0.5 0.4 1.7 0.4 2.2 0.1 3.2 -0.1 2.3 -0.4z m-75.7 -28 c0.8 -0.6 3.9 -2.7 6.9 -4.7 4.2 -2.7 4.9 -3.6 3.2 -3.6 -1.8 0 -2.2 -0.6 -2.2 -3.4 0 -3.1 0.6 -3.9 6.3 -7.8 3.9 -2.8 6.3 -5.2 6.5 -6.6 0.3 -2.1 -0.1 -2 -8 1.8 -8.8 4.3 -25.3 14.3 -30.3 18.5 l-3 2.5 3.3 0 c2.7 0 3.2 0.4 3.2 2.3 0 2.1 0.4 2.2 6.4 2.2 3.5 0 7 -0.6 7.7 -1.2z m174.7 -8.5 c-2.4 -0.8 -2.8 -1.5 -2.8 -4.9 0 -3.8 0.1 -3.9 3.6 -3.9 1.9 0 5.5 0.5 7.9 1.1 8.8 2.2 7.9 0.3 -1.7 -3.5 -12.5 -5 -40.1 -11.9 -39.4 -9.9 0.4 0.8 0.6 2.3 0.6 3.4 0 1.3 1.3 2.4 4 3.5 3.5 1.4 4 2 4 4.9 0 2.7 -0.5 3.4 -2.2 3.8 -1.8 0.3 -1.7 0.5 0.7 0.6 2.6 0.1 13.1 2.6 22 5.1 4.2 1.1 6.6 1.1 3.3 -0.2z m84.6 -3 c2.2 -3 2 -4.8 -0.4 -4.8 -1.6 0 -2 -0.7 -2.1 -3.2 -0.1 -2.9 -0.3 -2.7 -1 1.2 -1.2 6.9 -1.1 9 0.5 9 0.8 0 2.2 -1 3 -2.2z m-316.7 -13 c-0.2 -1.8 -0.4 -0.6 -0.4 2.7 0 3.3 0.2 4.8 0.4 3.3 0.2 -1.5 0.2 -4.2 0 -6z m1 -23.5 c-0.3 -1 -0.5 -0.2 -0.5 1.7 0 1.9 0.2 2.7 0.5 1.8 0.2 -1 0.2 -2.6 0 -3.5z m389.2 -58.5 c0 -2.4 -0.6 -6.9 -1.3 -10.1 l-1.2 -5.8 -2.1 10.1 -2 10 3.3 0 c3.3 0 3.4 -0.1 3.3 -4.2z m-417.9 -69 c0 -1.9 -0.2 -2 -1 -0.8 -1.3 1.9 -1.3 3 0 3 0.6 0 1 -1 1 -2.2z m30.6 -15.1 c1.9 -3.9 4.9 -8.6 6.5 -10.4 4.2 -4.9 3.6 -5.2 -1.4 -0.7 -4.5 4 -9.2 11.7 -10.3 16.8 -1.1 4.8 1.2 2.2 5.2 -5.7z m21.2 -26.7 c0.9 0 5.3 -3.4 9.6 -7.6 5.9 -5.6 9.9 -8.5 15.4 -11 4.1 -1.9 8.3 -3.4 9.3 -3.4 1 0 5.1 -0.9 9.1 -1.9 4 -1.1 10.5 -2.5 14.4 -3.1 10.5 -1.7 15.4 -7 10.5 -11.5 -1.8 -1.5 -2.5 -1.6 -7.3 -0.4 -5.7 1.5 -40.3 18.4 -45.3 22.1 -5.7 4.4 -20.5 16.9 -20.5 17.5 0 0.3 0.7 0.2 1.6 -0.1 0.9 -0.3 2.3 -0.6 3.2 -0.6z m294 -29.1 c0.9 0 -0.4 -0.7 -2.9 -1.4 -2.6 -0.7 -5.3 -1.6 -6 -2 -0.8 -0.4 0.4 1.1 2.6 3.4 3.5 3.7 4 4 4.3 2.2 0.2 -1.2 1.1 -2.1 2 -2.2z m-143.9 -41.9 c7.9 -0.1 9.2 -0.3 7.6 -1.2 -1.2 -0.8 -5.4 -1.1 -11 -1 -7.8 0.3 -10.7 -0.2 -21.4 -3.3 -6.9 -1.9 -13.1 -3.5 -13.8 -3.5 -0.8 0 -1.3 1.2 -1.3 3 0 2.7 0.3 3 3.3 3.1 1.7 0 5.2 0.9 7.7 2 3.6 1.5 6 1.8 11.9 1.4 4.1 -0.3 11.7 -0.5 17 -0.5z m-45.1 -2.7 c-1 -0.2 -2.6 -0.2 -3.5 0 -1 0.3 -0.2 0.5 1.7 0.5 1.9 0 2.7 -0.2 1.8 -0.5z m-13.5 -10 c-1.3 -0.2 -3.3 -0.2 -4.5 0 -1.3 0.2 -0.3 0.4 2.2 0.4 2.5 0 3.5 -0.2 2.3 -0.4z"/>
 </g>
 <g fill="#fe9701">
  <path d="M207.8 796.5 c-0.3 -2.3 0 -3.5 0.8 -3.5 1.3 0 3 -5.7 2.1 -6.7 -0.3 -0.2 0.4 -1.4 1.5 -2.5 1.1 -1.1 1.8 -2.8 1.5 -3.8 -0.3 -1.1 0.1 -2.1 1 -2.4 0.8 -0.4 1.3 -1.3 1 -2 -0.3 -0.8 -0.2 -1.6 0.4 -1.8 0.5 -0.2 1.1 -1.4 1.4 -2.7 0.2 -1.4 1 -2.8 1.7 -3.2 0.7 -0.5 1.4 -1.3 1.4 -1.9 0.1 -0.5 0.2 -1.4 0.3 -2 0 -0.5 0.7 -1 1.4 -1 1.3 0 3.6 -3.6 3.3 -5.2 0 -0.4 0.9 -1.5 2.2 -2.3 1.2 -0.9 2 -2.1 1.7 -2.6 -0.4 -0.5 0.2 -0.9 1.1 -0.9 1 0 1.5 -0.3 1.1 -0.6 -0.3 -0.3 0.7 -1.7 2.4 -3.1 1.6 -1.4 2.7 -2.9 2.3 -3.4 -0.3 -0.5 0.7 -1.4 2.2 -1.9 1.5 -0.6 2.4 -1.3 2 -1.7 -0.9 -0.9 4.4 -6.3 6.1 -6.3 0.8 0 1.1 -0.5 0.8 -1 -0.3 -0.6 0.5 -1.4 1.9 -2 1.5 -0.5 2.5 -1.5 2.4 -2.1 -0.2 -0.7 0.7 -1.8 2 -2.4 1.3 -0.7 2.2 -1.6 2 -2.1 -0.2 -0.5 0.9 -1.5 2.4 -2.2 1.5 -0.7 3.7 -2.6 4.8 -4.2 1.2 -1.7 2.8 -3 3.5 -3 0.8 0 1.9 -0.9 2.5 -2 0.6 -1.1 1.6 -2 2.3 -2 0.7 0 2.8 -1.4 4.7 -3 4.4 -3.8 9.7 -6.3 11.2 -5.4 0.7 0.5 0.9 0.2 0.5 -0.9 -0.4 -1.2 2.7 -3.6 13.1 -10 7.5 -4.7 18.4 -10.9 24.2 -13.8 5.8 -3 10.7 -5.7 10.8 -6.1 0.2 -0.5 1 -0.8 1.7 -0.8 0.8 0 1.7 -1.5 2 -3.7 0.4 -2.1 1.1 -5.4 1.6 -7.3 0.5 -1.9 0.9 -3.8 0.9 -4.2 0 -2.6 -14 -14.7 -18.8 -16.2 -2 -0.7 -2.3 -1.3 -2 -4.9 0.3 -3.9 0.5 -4.2 3.6 -4.5 2 -0.2 3.6 -1 3.9 -2 0.4 -0.9 1.4 -2.3 2.2 -2.9 2.6 -2.1 21.1 -11.3 22.7 -11.3 0.8 0 1.4 -0.4 1.4 -1 0 -0.5 0.6 -1 1.4 -1 0.7 0 2.7 -0.7 4.2 -1.5 1.6 -0.8 5.4 -1.5 8.4 -1.5 l5.5 0.1 6.4 11 c3.6 6.1 7.7 12.4 9.2 14.1 1.6 1.6 2.6 3.5 2.3 4.2 -0.4 0.9 0.7 1.6 3 2 2.2 0.4 3.6 1.3 3.6 2.1 0 1.9 0.9 1.9 12.1 -0.5 14.7 -3.1 28 -8 31.7 -11.7 0.7 -0.7 2 -1.3 2.7 -1.3 2.3 0 2.6 -3.1 1.6 -19.2 -1.3 -19.5 -1 -20.7 5.4 -22.6 6.9 -2 26.7 -1.3 31.2 1.1 4.2 2.2 7.4 8.5 8 15.6 0.4 5 -1.5 21.7 -3.3 29.4 -0.6 2.5 -0.4 2.7 2.2 2.7 2.9 0 6 3.2 4.9 4.9 -1.1 1.9 3.3 2.7 31 5.5 16.9 1.7 27.8 3.4 31.5 4.9 1.4 0.5 3.8 1 5.4 1.1 1.6 0 3.1 0.6 3.3 1.2 0.2 0.7 1.2 1 2.2 0.7 1 -0.2 2.5 0.3 3.4 1.2 0.9 0.9 2.1 1.4 2.7 1 1 -0.6 11.3 4.2 11.8 5.6 0.2 0.5 0.8 0.7 1.3 0.3 2.2 -1.3 15.9 11 21.7 19.6 4.6 6.9 9.9 17.7 11.7 23.8 3.1 10.5 6.5 34.3 6.5 45.5 -0.1 11.1 -1.3 32.3 -2.6 42.5 l-0.6 5.2 -160.4 0 c-88.2 0 -160.4 -0.3 -160.4 -0.7 -0.1 -0.5 -0.6 -2.9 -1.3 -5.5 -1 -3.6 -1.6 -4.5 -2.7 -3.8 -1.1 0.7 -1.2 1.4 -0.2 3.5 0.7 1.4 1.2 3.5 1.2 4.5 0 2 -1 2 -46.4 2 l-46.4 0 -0.4 -3.5z m337.7 -36.7 c-0.6 -2.3 -1.7 -4.4 -2.3 -4.6 -1.6 -0.5 -1.4 0.9 0.3 3.2 0.8 1.1 1.5 2.8 1.5 3.8 0 1 0.4 1.8 0.9 1.8 0.5 0 0.3 -1.9 -0.4 -4.2z"/>
  <path d="M250 532.9 l0 -4 3.8 0.3 c3.5 0.3 3.7 0.5 4 4.1 l0.3 3.7 -4 0 -4.1 0 0 -4.1z"/>
  <path d="M230 532.4 c-0.6 -1.4 -1 -4.1 -1 -6 0 -2.7 0.4 -3.4 2 -3.4 1.7 0 2 -0.7 2 -4 l0 -4 4 0 4 0 0 4 c0 3.5 -0.3 4 -2.2 4 -1.7 0 -1.9 0.3 -1 1.2 1.3 1.3 1.5 4.9 0.6 8.6 -0.5 1.7 -1.4 2.2 -4 2.2 -2.8 0 -3.6 -0.5 -4.4 -2.6z"/>
  <path d="M452 525.5 c0 -3.3 0.2 -3.5 3.5 -3.5 3.3 0 3.5 0.2 3.5 3.5 0 3.3 -0.2 3.5 -3.5 3.5 -3.3 0 -3.5 -0.2 -3.5 -3.5z"/>
  <path d="M249 524 c0 -0.5 -0.7 -1 -1.5 -1 -2 0 -2 -6.6 -0.1 -8.6 0.9 -0.8 3.4 -1.4 6 -1.4 l4.6 0 0 6 0 6 -4.5 0 c-2.5 0 -4.5 -0.4 -4.5 -1z"/>
  <path d="M442 522 c0 -2.3 -0.4 -3 -2 -3 -1.4 0 -2 -0.7 -2 -2.4 0 -1.9 -0.7 -2.5 -3.5 -3 -3.2 -0.6 -3.5 -1 -3.5 -4.1 0 -1.9 0.5 -3.5 1 -3.5 0.6 0 1 -0.9 1 -2 0 -1.5 0.7 -2 2.9 -2 5 0 6.1 0.9 6.1 5.1 0 3.5 0.3 3.9 2.5 3.9 2.2 0 2.5 0.4 2.5 3.5 0 1.9 0.5 3.5 1 3.5 0.6 0 1 1.6 1 3.5 0 3.3 -0.2 3.5 -3.5 3.5 -3.2 0 -3.5 -0.2 -3.5 -3z"/>
  <path d="M457 512.6 c0 -2.2 -0.3 -2.3 -4.5 -1.8 l-4.5 0.5 0 -4.7 0 -4.7 4.8 0.3 c4 0.3 4.7 0.6 5 2.6 0.3 1.8 1 2.2 3.8 2.2 3.3 0 3.4 0.1 3.4 4 l0 4 -4 0 c-3.5 0 -4 -0.3 -4 -2.4z"/>
  <path d="M234 504.5 c0 -3.3 0.2 -3.5 3.5 -3.5 3.3 0 3.5 0.2 3.5 3.5 0 3.3 -0.2 3.5 -3.5 3.5 -3.3 0 -3.5 -0.2 -3.5 -3.5z"/>
  <path d="M468.4 505.6 c-0.3 -0.8 -0.4 -2.7 -0.2 -4.3 0.3 -2.6 0.6 -2.8 4.8 -2.8 l4.5 0 0.3 4.3 0.3 4.2 -4.6 0 c-3 0 -4.7 -0.5 -5.1 -1.4z"/>
  <path d="M243 499 c0 -4.9 0.1 -5 2.9 -5 5 0 6.1 0.9 6.1 5 0 4.1 -1.1 5 -6.1 5 -2.8 0 -2.9 -0.1 -2.9 -5z"/>
 </g>
 <g fill="#2c1101">
  <path d="M298 799 c0 -0.6 -1.2 -2.2 -2.7 -3.6 -2.4 -2.2 -2.8 -2.3 -4.9 -0.9 -1.5 1 -2.5 1.1 -2.9 0.4 -0.4 -0.6 0.3 -1.3 1.5 -1.6 2 -0.5 1.9 -0.7 -1 -2.5 -3.7 -2.2 -3.8 -5.4 -0.2 -5.1 1.5 0.2 2.2 -0.2 2 -1.1 -0.2 -0.8 0.2 -1.4 0.7 -1.3 0.6 0.1 0.9 1 0.8 2 -0.2 0.9 0.2 1.7 0.7 1.7 0.6 0 1 -0.4 1 -1 0 -0.5 0.8 -1 1.9 -1 1.6 0 1.9 -0.7 1.7 -5.1 -0.1 -3.3 0.3 -5.3 1.1 -5.6 1.4 -0.5 5.7 8.4 7.9 16.2 0.7 2.8 1.6 6 2 7.3 0.6 2.1 0.3 2.2 -4.5 2.2 -2.9 0 -5.1 -0.5 -5.1 -1z"/>
  <path d="M552 797.8 c0 -4 -1.2 -6.8 -2.9 -6.9 -1.1 0 -0.9 -0.3 0.6 -0.9 2 -0.8 2.1 -1.3 1.2 -4.7 -2.7 -10.8 -2.8 -11.1 -4.9 -10.6 -1.4 0.4 -2 0 -2 -1.1 0 -0.9 0.4 -1.6 0.9 -1.6 0.6 0 0.9 -0.9 0.8 -2.1 -0.1 -1.4 -1 -2.2 -2.9 -2.6 -2.9 -0.6 -3.7 -1.8 -1.6 -2.5 1.6 -0.6 -2.3 -6.8 -6.7 -10.7 -4.2 -3.7 -4.8 -7.1 -1.1 -6.4 1.4 0.3 3.3 1.4 4.2 2.4 2.2 2.4 3.7 2.4 2.9 0 -0.4 -1.4 0 -2.1 1.5 -2.6 1.1 -0.3 2 -1.3 2 -2.1 0 -0.8 0.5 -1.4 1 -1.4 0.7 0 0.7 0.6 0 2 -0.6 1.1 -0.7 2 -0.2 2 0.9 0 5.2 12.3 5.2 14.8 0 0.7 0.5 1.2 1 1.2 0.6 0 1 0.7 1 1.5 0 0.7 0.8 1.9 1.8 2.4 1.6 1 1.6 1.2 0 2.4 -1 0.8 -1.5 1.6 -1.3 1.9 0.3 0.3 0.8 1.6 1 2.8 0.3 1.3 1 2.7 1.6 3.1 0.8 0.5 1.3 4.5 1.5 11.3 l0.2 10.6 -2.4 0 c-1.8 0 -2.4 -0.5 -2.4 -2.2z"/>
  <path d="M547.6 787.5 c-0.4 -1.3 -0.2 -1.4 1.4 -0.5 2.3 1.3 2.6 2 0.6 2 -0.8 0 -1.6 -0.7 -2 -1.5z"/>
  <path d="M388.4 683.2 c-1.5 -0.9 -2.2 -4.4 -1.2 -5.7 0.5 -0.5 1.9 -2.6 3.1 -4.5 1.6 -2.4 3 -3.5 4.7 -3.5 3.6 0 3.5 2.3 -0.2 8.4 -3.4 5.7 -4.5 6.6 -6.4 5.3z"/>
  <path d="M376.5 678.4 c-1.9 -1.9 -1.5 -3.8 0.9 -4.2 2.5 -0.5 3.9 1.2 3.1 3.7 -0.8 2.5 -1.8 2.6 -4 0.5z"/>
  <path d="M333.6 677.3 c-1.1 -1.2 -0.6 -3.3 0.8 -3.3 1.4 0 1.6 -0.8 3.2 -14.1 l0.6 -5.6 -5.3 -4.4 c-3 -2.5 -7.3 -5.3 -9.6 -6.3 -2.3 -1 -5.2 -2.9 -6.4 -4.2 -2 -2.2 -2.1 -2.6 -0.8 -5 2.1 -3.9 11.4 -9.9 31.4 -20 9.9 -5 18.1 -9.7 18.2 -10.5 0.6 -3.3 -1.5 -4.4 -10.4 -5 -21 -1.7 -31.7 -4.8 -66.8 -19.3 -8.8 -3.7 -18.9 -7.9 -22.5 -9.3 -3.6 -1.4 -9.1 -4.3 -12.2 -6.5 -3.5 -2.3 -6.9 -3.8 -8.7 -3.8 -2.6 0 -4 -1.2 -9.3 -7.5 -11.4 -13.7 -15.3 -21.6 -21.2 -43.5 -6.9 -25.8 -7.6 -30 -5.1 -30 1.8 0 1.8 0.9 0 -10.4 -1.8 -11.1 -2.5 -41.2 -1.4 -58 0.7 -10.8 0.6 -12.3 -1.2 -15.7 -3.9 -7.8 -9.1 -7.7 -13.5 0.3 -3.9 7.2 -5.3 11.1 -6.8 19.3 -1.6 9.3 0.1 20.2 4.2 26 2.4 3.4 3.4 4 6.8 4.1 7.1 0.3 7.4 0.4 7.4 2.3 0 1 -0.7 2.4 -1.5 3.1 -2 1.7 -10.2 1.5 -13 -0.4 -7 -4.6 -12.3 -19.9 -11.2 -32 1 -10.6 7.1 -25.9 12.4 -31.2 l2.7 -2.7 -1.8 -6.1 c-1.8 -6.4 -5.3 -22.6 -6.2 -28.6 -0.3 -1.9 -0.7 -4.5 -0.9 -5.8 -0.4 -2.4 -0.6 -4.7 -3 -31.2 -0.9 -9.1 -1.8 -18.7 -2.2 -21.3 -0.5 -4.5 -0.7 -4.6 -2 -2.7 -2 2.8 -7.1 18 -8.8 26.3 -0.8 3.8 -1.5 10.6 -1.5 15.3 0 6.7 -0.3 8.6 -1.5 9.1 -2.5 0.9 -2.8 -0.2 -2.8 -9.5 0.1 -14.1 4.4 -30.4 12.2 -45.7 2.3 -4.4 5.7 -12.9 7.7 -19 1.9 -6 5.1 -13.4 7 -16.3 8.5 -12.8 26.2 -30.2 42.8 -42 18.2 -12.9 31.4 -19.9 54.6 -29.1 17.2 -6.9 22.5 -7.6 22.5 -3.2 0 2 -0.8 2.6 -5.1 3.7 -2.8 0.7 -7.7 2.4 -10.8 3.8 -3.2 1.4 -6.2 2.6 -6.7 2.6 -1.2 0 -8.3 3.1 -19.4 8.6 -36.3 17.9 -70.4 48.7 -77.4 69.9 -1.1 3.3 -2.7 7.9 -3.5 10.3 -1.6 4.3 -1.4 10.5 0.9 33.7 0.2 2.2 1.1 11.4 1.9 20.5 1.7 18.3 4.7 36.1 7.7 46 2.4 8 2.6 8.3 6.6 10.4 1.8 0.9 4.4 3.3 6 5.3 1.5 2.1 2.9 4 3.1 4.3 0.2 0.3 0.9 -0.2 1.5 -1.1 1.2 -1.6 8.4 -5.7 10.2 -5.7 7.7 -0.2 38 -6.5 41.5 -8.7 0.5 -0.3 0.8 -5.5 0.5 -12.4 -0.5 -15.7 1.3 -22.7 5.4 -20.1 1.5 0.9 2 35.5 0.5 37 -2.2 2.1 -26.9 8.3 -40.1 9.9 -7.4 0.9 -16.8 4.6 -17.8 7 -0.3 0.7 -0.8 12 -1.2 25.1 -0.8 29 0.8 48.4 3.8 47.5 1.4 -0.5 1.9 0.1 2.4 3.2 2.5 14.7 11.2 44.9 14.8 51 4.3 7.5 16.4 20.9 23.9 26.5 2.8 2.2 3.6 3.4 3.5 5.5 -0.2 2.6 0.6 3.2 9.3 7.5 5.2 2.6 15.8 7.1 23.5 10.2 7.7 3 15.4 6.1 17 7 3.7 1.8 17.4 5.7 33 9.2 1.7 0.3 10.4 0.7 19.4 0.8 14.5 0.2 16.6 0.4 17.5 2 1.5 2.3 -1.6 4.6 -6 4.6 -1.8 0 -3.5 0.4 -3.8 0.9 -0.6 1 9 18.5 15.8 28.8 5 7.4 5.5 10.6 1.9 11.1 -2.4 0.4 -4.1 -1.7 -12.8 -16.3 l-6 -10 -3.9 0.2 c-2.8 0.1 -4.5 0.8 -5.8 2.5 -1.5 2 -1.9 2.1 -2.8 0.8 -0.6 -1 -1 -1.1 -1 -0.2 0 0.6 -0.6 1.2 -1.4 1.2 -1.6 0 -20.1 9.2 -22.7 11.3 -0.8 0.6 -1.8 2 -2.2 2.9 -0.3 1 -1.9 1.8 -3.8 2 -3.9 0.4 -4.9 2.3 -1.7 3.4 4.8 1.5 16 11 18.4 15.6 1.3 2.4 1.2 3.6 -0.1 9.5 -2.8 11.8 -3.1 12.8 -4.4 12.5 -0.8 -0.1 -2.4 0.4 -3.6 1.2 -1.2 0.8 -2.5 1.2 -2.9 0.9z m-99.2 -150.2 c-2 -2.1 -2.6 -0.8 -1.3 2.5 1 2.7 1.2 2.7 1.9 0.9 0.5 -1.3 0.3 -2.5 -0.6 -3.4z"/>
  <path d="M425.5 674.2 c-1.7 -1.2 -4.5 -10.5 -4.5 -14.9 0 -3.4 -0.4 -4.3 -1.7 -4.3 -1.2 0 -0.9 -0.5 1.1 -1.5 4.7 -2.5 6.6 -2 6.6 1.8 0 1.8 0.7 6 1.5 9.2 2.2 8.2 0.8 12.5 -3 9.7z"/>
  <path d="M455.3 665 c-1.5 -2.7 -3.3 -5 -4 -5 -0.6 0 -1.5 -0.5 -1.9 -1.2 -0.5 -0.8 -0.2 -0.9 0.9 -0.5 1.5 0.6 1.5 0.3 0.4 -2.6 -0.8 -1.8 -2.3 -3.7 -3.5 -4.3 -2.8 -1.4 -4.3 -2.9 -2.1 -2.1 1.2 0.4 1.6 0.1 1.3 -1.1 -0.5 -2.3 2 -5.4 3.8 -4.7 0.8 0.3 2.5 2.3 3.9 4.5 1.3 2.2 3 4 3.7 4 0.6 0 1.2 0.5 1.2 1.1 0 0.5 -0.4 0.7 -1 0.4 -1.4 -0.9 -1.2 0.1 0.3 1.7 1.8 2 5 11.6 4.3 13.3 -1.2 3.1 -4.4 1.6 -7.3 -3.5z"/>
  <path d="M375.5 648.7 c-9.3 -1.2 -9.5 -1.3 -9.5 -4.1 0 -1.3 0.6 -2.6 1.3 -2.8 0.6 -0.3 6.2 -0.1 12.2 0.3 6.1 0.4 12.4 0.6 14 0.5 6.3 -0.6 24.2 -3.7 27.5 -4.7 6.6 -2.1 16.5 -6.1 19.8 -8.1 3 -1.8 3.2 -2.3 3.2 -7.5 0 -4.6 -0.6 -6.5 -3.1 -10.5 -4.7 -7.2 -15.3 -16.4 -23.6 -20.4 -5.2 -2.5 -7.3 -4.1 -7.3 -5.4 0 -2.3 0.7 -2.7 5.1 -3.5 13.9 -2.4 22.1 -5.1 32.3 -10.7 3.8 -2.1 7.3 -3.8 7.7 -3.8 0.5 0 0.9 -0.4 0.9 -1 0 -0.5 0.6 -1 1.3 -1 1.8 -0.1 15.7 -11 18.1 -14.2 2.3 -3.2 1.5 -4.8 -1.5 -3 -1.1 0.7 2.3 -3.1 7.6 -8.5 5.4 -5.4 10.8 -11.5 12.1 -13.6 2.1 -3.2 2.7 -3.6 4.4 -2.7 2.1 1.1 2.2 1.1 9.4 -10.1 11.3 -17.5 15.3 -26.5 18.1 -41 0.9 -5.2 1.9 -9.9 2 -10.5 0.2 -0.7 2 -2.4 4 -4 4.4 -3.3 5.6 -2.9 10.2 4.1 2.6 4 3.2 5.6 2.7 8.5 -0.7 4.9 0.8 11.4 2.9 11.8 2.4 0.5 14.3 -7.6 20.4 -13.8 8.9 -9 15.5 -26.2 14.7 -38 -0.6 -8.2 -3.2 -14.2 -8.4 -19.6 -4 -4.2 -4.7 -4.5 -7.9 -3.9 -3.7 0.7 -10 4 -13.6 7.2 -4.4 4 -16.2 21.2 -20.1 29.3 -2 4.3 -5.4 8.3 -5.4 6.4 0 -0.4 -0.9 0.2 -2 1.4 -2.7 2.9 -4.8 2.8 -5.6 -0.2 -0.6 -2.4 -0.3 -5.6 1.5 -16.6 0.9 -5.6 1.5 -46 0.7 -46 -0.2 0 -4 2.4 -8.3 5.4 -8.5 5.8 -21.2 12.6 -23.7 12.6 -0.8 0 -1.8 -0.5 -2.1 -1 -1.3 -2.1 0.7 -4.7 5.3 -6.9 5.7 -2.7 12.8 -7.2 20 -12.4 3.5 -2.5 5.9 -3.6 7.2 -3.2 1.5 0.5 1.9 0 2.2 -2.1 0.4 -3.1 3.2 -5.4 4.8 -3.8 0.6 0.6 1.1 11.7 1.1 30.5 0.1 22.4 0.4 28.9 1.3 27.5 0.6 -1.1 4.1 -6.5 7.8 -12.1 7 -10.7 12.6 -16.5 18.3 -19.2 1.9 -0.9 3.5 -2 3.5 -2.5 0 -0.4 1.2 -1.4 2.8 -2.2 3.1 -1.6 12.9 -11.4 16.6 -16.6 1.4 -1.9 3 -4.1 3.6 -4.8 2.4 -2.7 6.1 -11.3 7.5 -17.3 8.4 -36.7 8.5 -53.4 0.4 -70.6 -2.7 -5.9 -5.8 -9.4 -22.8 -26.3 -17.8 -17.8 -31.6 -32.4 -39.6 -41.8 -9.5 -11.4 -13.2 -14.8 -17.9 -16.9 -2.8 -1.2 -5.8 -2.2 -6.7 -2.3 -0.8 0 -3.9 -2.7 -6.8 -6 -9.7 -11.1 -21.6 -22.6 -25.2 -24.4 -7.3 -3.8 -15.1 1.5 -22 14.8 -4.7 9 -6.2 10.8 -8.6 9.9 -2.2 -0.8 -1.5 -4.1 2.6 -12.8 5.7 -12 14.7 -19.6 23.5 -19.7 6.2 -0.1 12.9 4.6 25.9 18.5 11.4 12.1 11.5 12.3 21.5 16.5 5.6 2.3 13.7 5.3 18.2 6.6 4.4 1.3 9.1 3.2 10.3 4.2 3.8 3.3 8.9 5.3 17.4 6.8 12.6 2.4 20.4 6.5 29.8 16 11.7 11.8 16.5 18.1 22.7 29.6 4.2 7.6 11.9 20.6 18.3 30.7 4.4 7 4.9 9.6 1.9 10.7 -1.9 0.7 -4.9 -2.6 -9.3 -10 -1.9 -3.3 -5.7 -9.7 -8.6 -14.4 -2.9 -4.7 -7 -11.8 -9.1 -15.9 -3.8 -7.1 -15.7 -22.3 -22.5 -28.8 -5.6 -5.2 -16.6 -10.4 -24.1 -11.4 -4.7 -0.6 -9.8 -2.3 -17.2 -5.9 -5.8 -2.7 -10.9 -5 -11.2 -5 -0.3 0 -0.4 0.7 -0.2 1.5 0.5 2.5 34.1 38.7 43.3 46.6 9.5 8.2 20.8 23.6 23.9 32.4 1.9 5.5 4.5 25.8 4.4 34.6 0 3.1 0.4 7.9 1 10.5 2.8 13 3 31.9 0.4 42.3 -2.1 7.9 -2.7 9.1 -5.2 9.1 -3 0 -3.2 -3.2 -1 -12.3 2 -8.6 2.7 -20.7 1.1 -20.7 -1.2 0 -2.1 3.6 -2.1 8.6 0 5.8 -6.5 28.9 -10 35.3 -0.9 1.8 -0.7 2.7 1.4 5.4 3 4 5.4 13 5 18.8 -1.1 13.2 -1.6 16.8 -3.5 23.3 -3.5 11.9 -12 29.3 -17.8 36.6 -5.8 7.3 -11.6 12.8 -14.5 14 -8.1 3 -16.8 -0.8 -20.2 -8.8 -1.1 -2.7 -1.1 -2.6 -4.4 3.8 -3.2 6.5 -6.4 11.7 -13 21.6 -9.8 14.7 -30.9 36.9 -43 45.4 -1.9 1.3 -3.7 2.7 -4 3 -0.8 0.9 -15.4 10.3 -18.9 12.2 -2.9 1.6 -3.2 2.2 -2.9 5.5 0.2 2.8 0.7 3.7 1.8 3.5 9.2 -2.2 13.6 -2.5 21.1 -1.5 10 1.3 15.2 4.6 18.9 11.8 3.6 7.2 4 13.2 1.9 27.4 -1.6 10.9 -1.6 12.7 -0.3 14.5 0.8 1.1 1.4 2.8 1.4 3.8 0 2.6 -2.1 3.3 -2.7 0.9 -0.5 -2 -0.7 -2.1 -2.4 -0.6 -0.9 0.9 -2.6 1.5 -3.5 1.3 -1.5 -0.3 -1.8 -1.2 -1.6 -5.8 0.2 -3 0.7 -6.8 1.2 -8.5 1.5 -5 3.1 -21.3 2.4 -24.2 -1.3 -5.3 -4.4 -10.3 -7.6 -11.9 -6.3 -3.3 -28.3 -2.7 -30.5 0.9 -1.2 1.9 -0.4 9.2 1.1 10.3 2 1.4 2.1 2.8 0.2 2.1 -1.2 -0.5 -1.4 1 -1 9 0.2 5.6 0.9 10 1.5 10.4 0.7 0.4 0.9 1.8 0.4 3.8 -0.4 1.7 -1.1 2.9 -1.6 2.5 -0.5 -0.3 -0.9 0 -0.9 0.5 0 0.6 -0.6 1.1 -1.4 1.1 -0.8 0 -2.1 0.6 -2.8 1.3 -0.7 0.7 -2.1 1.6 -3.1 2 -1.1 0.4 -1.5 1.2 -1.1 1.8 0.4 0.8 0.3 0.9 -0.4 0.5 -0.6 -0.4 -2.8 0.1 -4.9 1 -16.3 6.9 -44.2 11.1 -60.8 9.1z"/>
  <path d="M443 644.1 c0 -0.5 0.6 -1.3 1.3 -1.9 1 -0.8 1.3 -0.6 1.4 0.9 0.1 1 -0.5 1.9 -1.3 1.9 -0.8 0 -1.4 -0.4 -1.4 -0.9z"/>
  <path d="M374.6 541.4 c-3.4 -3.4 -4.9 -9.5 -4.1 -15.9 0.7 -6.1 1.7 -7.8 4.1 -7.3 1.6 0.3 2 1.5 2.4 8.5 0.6 9.6 2.1 12.1 5.1 8.4 2.5 -3.1 2.4 -4.5 -1.1 -11.6 -3.3 -6.7 -3.7 -9.7 -1.5 -11.5 2.1 -1.8 3.1 -0.6 7 7.7 5.1 11.1 4.5 17.7 -2 22.2 -4.1 2.8 -6.7 2.7 -9.9 -0.5z"/>
  <path d="M303 529.2 c-2 -1.1 -4.5 -3.7 -5.8 -6 -1.5 -2.7 -3.1 -4.2 -4.3 -4.2 -1.7 0 -1.9 -0.8 -1.9 -7.5 0 -6 0.3 -7.5 1.5 -7.5 0.8 0 1.5 0.6 1.5 1.3 0 0.6 0.9 -0.2 1.9 -1.9 5 -8.2 18.8 -16.8 32.7 -20.5 6.5 -1.7 9.7 -1.9 18 -1.5 5.6 0.4 12.6 1.3 15.5 2.2 8.3 2.4 19.7 8.4 22.6 11.8 3.2 3.8 5.6 9.4 4.9 11.3 -1 2.6 -5 1 -6.8 -2.7 -2 -4 -6.2 -8 -8.4 -8 -0.8 0 -1.4 -0.3 -1.4 -0.8 0 -0.4 -3.5 -2.1 -7.7 -3.7 -7.3 -2.8 -8.7 -3 -21.3 -3 -9.2 0 -14.6 0.4 -17 1.4 -10.2 4.1 -16.7 7.8 -21.1 12 -4.5 4.4 -4.9 5.1 -4.9 9.5 0 2.7 0.8 6.3 2 8.6 1.9 3.7 2.3 4 6.4 4 5.4 0 10 -1.6 24 -8.4 13.7 -6.7 16.1 -7.5 22.5 -7.2 5.8 0.4 8.3 2 7.9 5 -0.3 1.9 -0.8 2.1 -7.3 1.8 -6.9 -0.4 -7.2 -0.3 -21 6.6 -18.5 9.1 -26 10.8 -32.5 7.4z"/>
  <path d="M456.7 527.4 c-0.4 -0.4 -0.7 -2.5 -0.7 -4.6 l0 -3.9 4.8 0.3 4.7 0.3 0 4 c0 4 0 4 -4 4.3 -2.3 0.2 -4.4 0 -4.8 -0.4z"/>
  <path d="M249.7 523.3 c-1.3 -1.2 -0.7 -3.3 0.8 -3.3 0.8 0 1.5 0.5 1.5 1 0 0.6 0.7 1 1.5 1 1.2 0 1.1 -0.4 -0.5 -2 -1.1 -1.1 -2.5 -2 -3.1 -2 -0.6 0 -0.9 -0.6 -0.6 -1.2 0.2 -0.8 2.1 -1.3 4.8 -1.3 l4.4 0 0.3 4.3 0.3 4.2 -4.4 0 c-2.4 0 -4.7 -0.3 -5 -0.7z m5.3 -6.3 c0 -0.5 -0.9 -1 -2.1 -1 -1.1 0 -1.7 0.5 -1.4 1 0.3 0.6 1.3 1 2.1 1 0.8 0 1.4 -0.4 1.4 -1z"/>
  <path d="M233 511.5 l0 -4.5 4.5 0 4.5 0 0 4.5 0 4.5 -4.5 0 -4.5 0 0 -4.5z"/>
  <path d="M435.7 515.3 c-0.4 -0.3 -0.7 -1.7 -0.7 -3.1 0 -1.9 0.4 -2.3 1.8 -1.8 1.5 0.5 1.5 0.4 -0.2 -0.8 -1 -0.8 -1.5 -2 -1.1 -2.6 0.5 -0.8 1.1 -0.5 2.1 0.7 1.3 1.7 1.3 1.7 1.4 0 0 -1.3 0.6 -1.7 2.3 -1.5 3 0.4 3.7 6.3 1 8.4 -1.9 1.4 -5.5 1.8 -6.6 0.7z"/>
  <path d="M469.2 505.9 c0.2 -2.3 0.9 -4.4 1.6 -4.7 0.7 -0.2 1.1 0.2 1 0.9 -0.2 0.7 0.6 1.5 1.6 1.7 1.4 0.3 1.7 0 1.3 -1.2 -0.5 -1.2 0 -1.6 1.9 -1.6 2.3 0 2.5 0.3 2.2 4.3 l-0.3 4.2 -4.8 0.3 -4.8 0.3 0.3 -4.2z"/>
  <path d="M244.1 505.6 c-1.5 -1.8 -1.1 -7.8 0.6 -8.3 0.6 -0.2 1.3 0.5 1.5 1.6 0.2 1.6 0.7 1.8 1.8 1.1 1.3 -0.9 1.3 -1.1 0 -2 -1.2 -0.8 -0.8 -1 1.5 -0.8 2.8 0.3 3 0.5 3 4.8 0 4.4 0 4.5 -3.6 4.8 -2.2 0.2 -4 -0.2 -4.8 -1.2z"/>
  <path d="M449.4 505.1 c-0.2 -0.2 -0.4 -2.2 -0.4 -4.3 l0 -3.8 4.6 0 4.5 0 -0.3 4.3 c-0.3 4.2 -0.3 4.2 -4.1 4.2 -2.1 0 -4.1 -0.2 -4.3 -0.4z"/>
  <path d="M325.6 470.4 c-4.7 -4.8 -2.8 -12.9 4 -17.6 5.6 -3.8 12.3 -6.8 13.8 -6.2 2.8 1.1 1.9 5.1 -1.4 6.6 -1.6 0.7 -3 1.6 -3 2 0 0.5 -0.5 0.8 -1.2 0.8 -1.9 0 -7.5 4.8 -8.1 7 -0.4 1.4 0.1 2.4 1.6 3.2 1.2 0.6 2.4 1.1 2.7 1 1.3 -0.4 4 1.1 4 2.2 0 4.3 -8.3 5 -12.4 1z"/>
  <path d="M247.5 465.1 c-0.3 -0.6 1 -0.7 3.2 -0.4 5 0.8 5.5 1.3 1 1.3 -2 0 -3.8 -0.4 -4.2 -0.9z"/>
  <path d="M250.4 461.5 c-0.4 -0.8 -0.4 -2.4 -0.1 -3.5 0.6 -2.5 0.7 -2.5 -4.7 0.5 -4.7 2.6 -7.6 2.5 -7.6 -0.5 0 -6.8 31.1 -26.7 55.6 -35.6 8 -2.9 9.4 -3.1 11 -1.9 2.9 2.1 0.7 4.6 -6.2 7.1 -5 1.8 -6 2.6 -6.4 5 -0.4 2.1 -2.2 4 -7 7.4 -5 3.5 -6 4.6 -4.5 4.8 2.5 0.5 4.5 3 3.8 4.8 -0.3 0.7 -2.1 2.4 -4.1 3.6 -2.1 1.2 -6 3.9 -8.8 6 -5.6 4.2 -6.9 4.5 -9.5 2.2 -1.6 -1.4 -2 -1.4 -4.8 0 -3.8 2 -6 2 -6.7 0.1z"/>
  <path d="M451.8 458.3 c1.2 -0.2 3 -0.2 4 0 0.9 0.3 -0.1 0.5 -2.3 0.4 -2.2 0 -3 -0.2 -1.7 -0.4z"/>
  <path d="M450.5 454.9 c-21.8 -6.2 -27.2 -7.6 -35.5 -8.9 -10.2 -1.6 -11 -1.9 -11 -4 0 -2.7 1.6 -3.4 7.4 -3.2 l5.1 0.1 -4.5 -2.2 c-2.9 -1.4 -4.6 -2.9 -4.6 -4.2 -0.1 -1.1 -0.2 -2.5 -0.3 -3 -0.1 -0.6 -1.5 -1.2 -3.3 -1.3 -3.8 -0.3 -5.8 -1.8 -5.8 -4.2 0 -2.1 1.9 -3 6.5 -3 5 0 38.1 8.5 47.1 12.1 14.2 5.7 17.3 7.8 15.6 10.6 -0.9 1.4 -14.3 0.9 -19.2 -0.6 -4.2 -1.3 -5 -1.4 -5 -0.3 0 0.5 2.6 1.9 5.8 3.2 7.2 2.9 8.2 3.7 8.2 6.5 0 1.8 -2.3 4.1 -3.3 3.4 -0.1 -0.1 -1.5 -0.5 -3.2 -1z"/>
  <path d="M274.7 403.9 c-1.4 -0.8 -1.6 -1.9 -1.2 -5.7 1.2 -9.8 9.2 -45.7 11.6 -51.9 1 -2.6 3.1 -3 4.9 -0.8 1 1.2 0.6 4 -1.9 14.5 -1.7 7.2 -4.3 19.2 -5.7 26.8 -3.6 18.8 -3.9 19.3 -7.7 17.1z"/>
  <path d="M482.7 399.4 c-1.4 -1.4 -0.6 -3.5 3.8 -10.1 7.6 -11.2 9 -15.9 9 -29.8 0 -11.4 0.1 -12 2.1 -12.3 1.5 -0.2 2.4 0.5 3.4 2.7 1.4 3.4 1.8 14.6 0.8 20.6 -2.3 13.7 -15.1 32.9 -19.1 28.9z"/>
  <path d="M399.3 391.4 c-1.7 -0.9 -5.4 -4.2 -8.2 -7.4 -5.4 -6.2 -11.5 -9.7 -20.5 -11.9 -5.3 -1.3 -21.4 -1.3 -31.1 -0.1 -3.3 0.5 -8.2 1 -11 1.3 -2.7 0.3 -7.5 0.9 -10.6 1.2 -4.7 0.6 -5.7 0.5 -6.2 -0.9 -0.9 -2.4 0.2 -4.6 2.7 -5 1.1 -0.3 6.8 -1 12.6 -1.6 5.8 -0.6 12.1 -1.4 14 -1.6 7.4 -1.1 19.8 -1.1 27.6 0.1 10.7 1.5 18.9 5.8 26 13.5 6.4 6.8 9.9 8.5 15.1 7.5 3.8 -0.7 10 -6.1 15.3 -13.4 4.3 -5.9 11.3 -14.5 13.4 -16.3 2.1 -2 5.1 -2.4 6.1 -0.8 0.7 1.1 -1.1 4.8 -3.4 7.1 -0.9 0.9 -2.7 3.1 -4.1 4.9 -1.4 1.8 -4.3 5.7 -6.5 8.6 -2.2 2.9 -4.9 6.4 -6 7.9 -1.1 1.5 -4.2 4 -7 5.6 -5.8 3.3 -13 3.8 -18.2 1.3z"/>
  <path d="M458.1 389.6 c-1.6 -2 0.6 -5.3 6.7 -10.2 5.3 -4.2 14.2 -13.2 17.9 -18.1 4.2 -5.5 9.3 -3.4 6.2 2.5 -2.7 5.1 -25.8 27.1 -28.5 27.2 -0.6 0 -1.7 -0.6 -2.3 -1.4z"/>
  <path d="M452 383.5 c-0.8 -1 -1.2 -4.6 -1.2 -10.5 0.1 -14.5 4.9 -30 9.3 -30 3.1 0 3.2 2 0.4 10.5 -2 6 -2.8 10.8 -3.1 18.9 -0.3 6 -0.7 11.3 -1 11.7 -0.8 1.4 -3 1.1 -4.4 -0.6z"/>
  <path d="M172.2 366.7 c-2.6 -5.5 -7.2 -20.6 -7.2 -23.6 0 -3.1 3.2 -2.4 4.2 0.9 0.4 1.4 2.1 6.8 3.8 12 4.2 12.9 4.6 15 2.7 15 -0.8 0 -2.4 -1.9 -3.5 -4.3z"/>
  <path d="M306 368.7 c-0.9 -0.7 -3.3 -5 -5.3 -9.7 -2.1 -4.7 -5.8 -11.8 -8.3 -15.9 -5.6 -9.4 -6.2 -11.6 -3.5 -13 1.8 -1 2.4 -0.6 5.2 3.1 1.7 2.4 6.3 10.8 10.2 18.7 5.4 10.9 6.8 14.7 6.1 15.9 -1.4 2.1 -2.6 2.4 -4.4 0.9z"/>
  <path d="M438 206.4 c-2.5 -1.9 -9.2 -7.9 -15 -13.3 -13.1 -12.3 -15.1 -14 -22.3 -18.5 l-5.9 -3.8 -12.1 0.6 c-21.5 1.1 -23.9 1 -29.3 -1.2 -4.6 -1.9 -6.3 -2 -15.1 -1.3 -5.4 0.4 -10.7 1.2 -11.8 1.8 -3.8 2.2 -7.6 -2.7 -4.2 -5.5 1.6 -1.3 10.8 -3.2 16 -3.2 8.7 -0.1 0.9 -2 -11.6 -2.9 -6.9 -0.4 -13 -1.1 -13.6 -1.5 -1.6 -1.1 -1.3 -4.3 0.5 -5 5.9 -2.2 28.4 0.9 49.4 6.9 11.4 3.3 13.2 3.6 20.6 3 6.7 -0.5 8.8 -0.3 11.5 1.1 7.6 3.8 21 13.9 29.9 22.4 5.2 5 11.5 10.8 14 12.8 6.3 5.2 8.1 7.4 7.5 9 -0.3 0.7 -0.5 1.6 -0.5 1.8 0 1.4 -4.2 -0.2 -8 -3.2z"/>
  <path d="M224 197.5 c-0.7 -0.8 -1 -2.1 -0.7 -2.9 0.3 -0.7 5.6 -4.4 11.9 -8.1 6.2 -3.7 12 -7.3 12.8 -8 0.8 -0.7 2.6 -1.6 4 -2 1.4 -0.4 4.3 -1.6 6.5 -2.6 2.2 -1 7.4 -2.9 11.5 -4.4 17.9 -6.3 20.4 -6.6 19.8 -2.3 -0.2 1.9 -1.9 2.8 -9.8 5.6 -18.5 6.4 -27.3 10.2 -35 15.2 -8.9 5.6 -9.3 5.9 -14.2 8.5 -5.6 2.9 -5.2 2.9 -6.8 1z"/>
 </g>
 <g fill="#fea119">
  <path d="M207.8 796.6 c-0.3 -2.5 0 -3.6 0.9 -3.6 0.9 0 1.1 1 0.6 3.3 -0.8 4.3 -1 4.4 -1.5 0.3z"/>
  <path d="M622 797 c0 -2.2 0.5 -3 1.8 -3.1 1 0 1.2 -0.3 0.5 -0.6 -1.9 -0.7 -1.7 -6.3 0.2 -6.3 1.7 0 1.8 1.5 0.9 8.4 -0.8 5.3 -3.4 6.6 -3.4 1.6z"/>
  <path d="M287.5 795 c-0.7 -1.1 1.8 -2.4 3.5 -1.8 0.6 0.2 0.1 0.9 -0.9 1.5 -1.3 0.8 -2.2 0.9 -2.6 0.3z"/>
  <path d="M551.1 792.8 c0 -1 -0.9 -1.8 -1.8 -1.9 -1.6 0 -1.5 -0.1 0.1 -0.8 1.9 -0.7 1.9 -0.8 -0.2 -1.3 -1.2 -0.4 -2.2 -1.1 -2.2 -1.7 0 -0.9 0.5 -0.9 2.1 -0.1 2.4 1.3 3.2 3.2 2.6 5.7 -0.4 1.7 -0.5 1.7 -0.6 0.1z"/>
  <path d="M295.3 788.6 c-3 -1.4 -2.9 -3.3 0.3 -3.9 1.7 -0.3 2.4 -0.1 2 0.8 -0.2 0.7 0 1.7 0.6 2.3 1.5 1.5 -0.4 2 -2.9 0.8z"/>
  <path d="M210.8 787.4 c-0.2 -1.1 0.4 -2.7 1.4 -3.6 2.1 -2.1 2.4 -0.5 0.4 3.1 -1.2 2.1 -1.3 2.2 -1.8 0.5z"/>
  <path d="M289.7 784.6 c-0.3 -0.8 -0.2 -1.8 0.3 -2.1 1.3 -0.8 2.4 1.5 1.2 2.7 -0.6 0.6 -1.1 0.4 -1.5 -0.6z"/>
  <path d="M554.6 781.4 c-0.4 -1.5 -0.5 -2.9 -0.2 -3.1 0.9 -0.9 2.6 0.8 2.6 2.7 0 3 -1.7 3.2 -2.4 0.4z"/>
  <path d="M624.9 782.8 c-1.5 -1.1 -1.6 -2.3 -0.7 -8.8 0.9 -7.1 0.6 -26.7 -0.6 -41.2 -0.4 -5 -0.2 -6.8 0.7 -6.8 3.2 0 4.5 24 2.8 48.8 -0.5 8.4 -0.8 9.2 -2.2 8z"/>
  <path d="M213.7 779.6 c-0.3 -0.8 0.1 -1.7 1 -2 0.8 -0.4 1.3 -1.3 1 -2 -0.3 -0.8 -0.2 -1.6 0.4 -1.8 0.5 -0.2 1.1 -1.4 1.4 -2.7 0.2 -1.4 1 -2.8 1.7 -3.2 0.7 -0.5 1.4 -1.3 1.4 -1.9 0.1 -0.5 0.2 -1.4 0.3 -2 0 -0.5 0.7 -1 1.4 -1 1.1 0 3.8 -4.1 3.9 -6 0 -0.3 0.9 -1.1 2 -1.8 1 -0.7 1.6 -1.8 1.3 -2.3 -0.4 -0.5 0.2 -0.9 1.1 -0.9 1 0 1.5 -0.3 1.1 -0.6 -0.3 -0.3 0.7 -1.7 2.4 -3.1 1.6 -1.4 2.7 -2.9 2.3 -3.4 -0.3 -0.5 0.7 -1.4 2.2 -1.9 1.5 -0.6 2.4 -1.3 2 -1.7 -0.9 -0.9 4.4 -6.3 6.1 -6.3 0.8 0 1.1 -0.5 0.8 -1 -0.3 -0.6 0.5 -1.4 1.9 -2 1.5 -0.5 2.5 -1.5 2.4 -2.1 -0.2 -0.7 0.7 -1.8 2 -2.4 1.3 -0.7 2.2 -1.6 2 -2.1 -0.1 -0.5 1 -1.5 2.4 -2.2 1.5 -0.7 3.7 -2.6 4.8 -4.2 1.2 -1.7 2.8 -3 3.5 -3 0.8 0 1.9 -0.9 2.5 -2 0.6 -1.1 1.6 -2 2.3 -2 0.7 0 2.2 -0.8 3.3 -1.8 5.3 -4.8 12.4 -8.4 12.4 -6.3 0 0.6 -3.1 3.1 -7 5.6 -3.8 2.4 -7.8 5.3 -8.9 6.2 -1 1 -3.7 3.1 -5.9 4.7 -5 3.5 -30.6 29.5 -31.5 31.9 -0.3 0.9 -1 1.7 -1.5 1.7 -0.5 0 -3.3 3.9 -6.3 8.8 -2.9 4.8 -5.9 9.3 -6.6 10 -0.7 0.7 -1.3 2.1 -1.3 3.1 0 1 -0.8 2.6 -1.9 3.5 -1.6 1.4 -1.9 1.5 -2.4 0.2z"/>
  <path d="M544 773.6 c0 -0.8 0.7 -1.6 1.5 -2 1 -0.4 1.5 0.1 1.5 1.4 0 1.1 -0.7 2 -1.5 2 -0.8 0 -1.5 -0.6 -1.5 -1.4z"/>
  <path d="M551.6 768.8 c-0.9 -3.5 -0.6 -5.6 0.5 -2.9 0.6 1.5 1.5 2.1 2.4 1.7 1.8 -0.7 2 0.5 0.3 2.2 -1.7 1.7 -2.5 1.5 -3.2 -1z"/>
  <path d="M542.3 767.3 c-2.5 -0.5 -3 -1.8 -1 -2.6 0.7 -0.3 1.9 0.4 2.5 1.4 0.7 1 1.1 1.8 1 1.8 -0.2 -0.1 -1.3 -0.4 -2.5 -0.6z"/>
  <path d="M551 751.1 c0 -1.1 0.5 -2.3 1 -2.6 0.6 -0.3 1 0.3 1 1.4 0 1.1 -0.4 2.3 -1 2.6 -0.5 0.3 -1 -0.3 -1 -1.4z"/>
  <path d="M557 745.6 c0 -0.8 0.5 -1.8 1 -2.1 0.6 -0.3 1 0.3 1 1.4 0 1.2 -0.4 2.1 -1 2.1 -0.5 0 -1 -0.6 -1 -1.4z"/>
  <path d="M622 723 c0 -1.1 0.7 -2 1.5 -2 0.8 0 1.5 0.9 1.5 2 0 1.1 -0.7 2 -1.5 2 -0.8 0 -1.5 -0.9 -1.5 -2z"/>
  <path d="M620.9 718.8 c0 -0.2 -0.2 -2 -0.4 -4 -0.6 -5.4 -2.7 -11.2 -7.7 -20.8 -8.4 -16.1 -9.6 -17.5 -21.8 -25.9 -7.3 -5 -12.3 -6.5 -13.3 -3.8 -0.4 1 -0.7 1 -1.8 0 -1.1 -1.1 -1 -1.3 0.4 -1.3 2.4 0 2.1 -1.9 -0.5 -3 -10 -4 -33.3 -8.4 -53.7 -10 -23.2 -1.8 -25.8 -2.3 -28 -4.9 -1.3 -1.5 -2.1 -3.8 -2.1 -6 l0 -3.6 2 2.5 c1.1 1.4 1.8 3.1 1.5 3.7 -0.2 0.7 0.6 1.5 1.8 1.8 3.9 0.8 30.9 4.3 39.2 5 8.3 0.7 20.9 3 22.8 4.2 0.6 0.3 2.4 0.7 4 0.7 1.7 0.1 3.2 0.6 3.4 1.2 0.2 0.7 1.2 1 2.2 0.7 1 -0.2 2.5 0.3 3.4 1.2 0.9 0.9 2.1 1.4 2.7 1 1 -0.6 11.3 4.2 11.8 5.6 0.2 0.5 0.8 0.7 1.3 0.3 2.2 -1.3 15.9 11 21.7 19.6 7 10.5 14.2 28.1 14.2 34.8 0 1 -2.9 1.8 -3.1 1z"/>
  <path d="M287.7 702.6 c-0.7 -1.6 20.4 -15.1 36.7 -23.5 10.2 -5.2 12 -5.8 13 -4.2 0.5 0.8 -5.5 4.2 -19.9 11.4 -2.2 1.1 -4.2 2.3 -4.5 2.6 -0.3 0.4 -1.6 1.2 -3 1.9 -5 2.4 -13.6 7.4 -16.5 9.6 -4.7 3.5 -5.3 3.7 -5.8 2.2z"/>
  <path d="M341.6 681.1 c-1.3 -1.4 -1.4 -2.1 -0.5 -2.7 0.7 -0.4 1.8 0.1 2.6 1.1 2.6 3.6 0.9 4.9 -2.1 1.6z"/>
  <path d="M428.3 680.3 c-2 -0.7 -1.5 -2.3 0.7 -2.3 1.1 0 2 0.4 2 0.9 0 1.3 -1.2 1.9 -2.7 1.4z"/>
  <path d="M418.2 676.8 c0.3 -0.7 1.4 -1.4 2.6 -1.6 1.6 -0.3 2 0.1 1.6 1.2 -0.7 1.9 -4.8 2.2 -4.2 0.4z"/>
  <path d="M348 668.8 c0 -0.7 0.4 -1.9 0.9 -2.7 1.1 -1.7 2.3 0.1 1.5 2.3 -0.7 1.9 -2.4 2.1 -2.4 0.4z"/>
  <path d="M415 664.5 c0 -0.8 0.5 -1.5 1 -1.5 0.6 0 1 0.7 1 1.5 0 0.8 -0.4 1.5 -1 1.5 -0.5 0 -1 -0.7 -1 -1.5z"/>
  <path d="M384.7 664.4 c-1.4 -1.4 -0.6 -2.4 1.9 -2.4 1.6 0 2.4 0.5 2.2 1.3 -0.5 1.4 -3.1 2.1 -4.1 1.1z"/>
  <path d="M568 662.9 c0 -0.3 1 -0.9 2.3 -1.3 3 -0.8 3.7 -0.7 3.7 0.3 0 0.5 -1.3 1.1 -3 1.3 -1.6 0.3 -3 0.1 -3 -0.3z"/>
  <path d="M449.6 659.1 c-0.3 -0.5 0.1 -1.2 1 -1.5 0.8 -0.3 1.3 -0.2 0.9 0.3 -0.3 0.5 0.1 1.2 0.7 1.4 0.8 0.4 0.7 0.6 -0.4 0.6 -0.9 0.1 -1.9 -0.3 -2.2 -0.8z"/>
  <path d="M416 654.9 c0 -0.5 1.1 -0.9 2.5 -0.9 1.4 0 2.5 0.2 2.5 0.4 0 0.2 -1.1 0.6 -2.5 0.8 -1.4 0.3 -2.5 0.1 -2.5 -0.3z"/>
  <path d="M438 654 c0 -0.5 0.7 -1 1.5 -1 0.8 0 1.5 0.5 1.5 1 0 0.6 -0.7 1 -1.5 1 -0.8 0 -1.5 -0.4 -1.5 -1z"/>
  <path d="M430.2 652.1 c0.7 -1.1 1.5 -1.8 2 -1.5 1.1 0.7 -0.3 3.4 -1.8 3.4 -1.2 0 -1.2 -0.4 -0.2 -1.9z"/>
  <path d="M444.6 650.1 c-0.3 -0.5 0.1 -1.2 1 -1.5 0.8 -0.3 1.3 -0.2 0.9 0.3 -0.3 0.5 0.1 1.2 0.7 1.4 0.8 0.4 0.7 0.6 -0.4 0.6 -0.9 0.1 -1.9 -0.3 -2.2 -0.8z"/>
  <path d="M442.4 643.4 c0.3 -0.9 0.6 -1.8 0.6 -2 0 -0.2 0.6 -0.4 1.3 -0.4 0.7 0 1.3 0.9 1.4 2 0.1 1.4 -0.4 2 -1.9 2 -1.4 0 -1.8 -0.5 -1.4 -1.6z"/>
  <path d="M338.5 639.9 c-0.4 -0.6 -0.4 -1.3 -0.1 -1.6 0.8 -0.8 3.6 0.5 3.6 1.7 0 1.3 -2.7 1.3 -3.5 -0.1z"/>
  <path d="M332.5 638 c0.3 -0.5 1.3 -1 2.1 -1 0.8 0 1.4 0.5 1.4 1 0 0.6 -0.9 1 -2.1 1 -1.1 0 -1.7 -0.4 -1.4 -1z"/>
  <path d="M377.5 636.4 c-0.9 -0.9 -1.3 -1.9 -0.9 -2.3 0.4 -0.3 0.9 0 1.1 0.7 0.3 0.6 0.9 1 1.4 0.6 0.5 -0.3 0.9 0.2 0.9 1 0 2 -0.5 2 -2.5 0z"/>
  <path d="M480 636.4 c0 -0.8 0.9 -1.4 2 -1.4 1.1 0 2 0.4 2 0.9 0 0.5 -0.9 1.1 -2 1.4 -1.3 0.3 -2 0 -2 -0.9z"/>
  <path d="M326 633.6 c0 -0.3 1.4 -1.3 3.1 -2.1 2.9 -1.6 3.1 -1.5 2.7 0.2 -0.2 1.1 -1.4 1.9 -3.1 2.1 -1.5 0.2 -2.7 0.1 -2.7 -0.2z"/>
  <path d="M337 632.1 c0 -1.7 1.5 -1.9 4.5 -0.6 l3 1.3 -3.7 0.1 c-2.1 0.1 -3.8 -0.3 -3.8 -0.8z"/>
  <path d="M452.6 622.4 c-1.1 -2.8 -0.6 -3.9 0.9 -2 0.8 1.1 1.5 2.3 1.5 2.8 0 1.4 -1.8 0.9 -2.4 -0.8z"/>
  <path d="M359.2 616.9 c0.2 -0.7 1 -1.5 1.7 -1.7 0.8 -0.3 1.2 0.1 0.9 0.9 -0.2 0.7 -1 1.5 -1.7 1.7 -0.8 0.3 -1.2 -0.1 -0.9 -0.9z"/>
  <path d="M366.9 611.7 c2 -2 4.1 -1.6 4.1 0.9 0 1 -0.9 1.4 -3 1.2 -3 -0.2 -3 -0.3 -1.1 -2.1z"/>
  <path d="M450.3 605.8 c0 -2.3 0.2 -2.6 1.7 -1.8 1 0.5 2 0.6 2.4 0.3 0.3 -0.3 0.6 -0.1 0.6 0.5 0 0.7 -0.9 1.2 -1.9 1.2 -1.1 0 -2.1 0.6 -2.4 1.3 -0.2 0.6 -0.4 0 -0.4 -1.5z"/>
  <path d="M481.2 604.8 c-1.4 -1.4 -1.6 -2.8 -0.3 -2.8 0.9 0 2.4 3 1.8 3.6 -0.2 0.2 -0.9 -0.2 -1.5 -0.8z"/>
  <path d="M245.8 545.9 c-2.9 -3.4 -6.7 -7.8 -8.4 -9.8 -2.5 -2.8 -3 -4.1 -2.3 -5.8 0.8 -2.3 -0.9 -4.6 -3.2 -4.1 -1.4 0.3 -6.4 -14.4 -10.6 -31.4 -3 -12.2 -3.1 -12 4.9 -16.3 4.8 -2.6 6.4 -2.9 16.9 -3.3 10.8 -0.4 12.1 -0.3 17 2 8.9 4.2 15.8 10.4 19 17.2 2.6 5.5 2.9 7.1 2.9 16.8 0 14.5 -2.1 20.2 -10 27.8 -3.2 3.1 -7.6 6.1 -9.7 6.9 -7.1 2.4 -9.3 3.6 -9.3 4.8 0 2.5 -1.9 1.2 -7.2 -4.8z m9.6 -24.7 c1.1 -1.8 -0.7 -5.2 -2.6 -5.2 -1.7 0 -1.8 0.3 -0.9 1.4 1 1.2 0.8 1.3 -0.8 0.9 -1.2 -0.3 -2.1 -0.1 -2.1 0.6 0 0.6 0.7 1.1 1.5 1.1 0.8 0 1.5 0.5 1.5 1 0 1.2 2.7 1.3 3.4 0.2z m-16.4 -9.7 c0 -0.8 -0.7 -1.5 -1.5 -1.5 -0.8 0 -1.5 0.7 -1.5 1.5 0 0.8 0.7 1.5 1.5 1.5 0.8 0 1.5 -0.7 1.5 -1.5z m10.4 -11.2 c-0.8 -3.1 -3.4 -3.8 -3.4 -1 0 2.6 2 5.1 3.2 3.9 0.4 -0.4 0.5 -1.7 0.2 -2.9z"/>
  <path d="M231 546.5 c0 -1.1 -1.1 -1.5 -3.5 -1.5 -3.8 0 -4.1 -0.2 -11.4 -6.7 -6.4 -5.8 -9.5 -14.4 -9.4 -26.3 0 -9.6 1.9 -15.4 5.3 -16.5 1.2 -0.4 2.3 -0.5 2.5 -0.3 0.1 0.1 1.9 6.4 3.9 13.8 4.4 16.2 8.9 25.9 16.3 35.7 l2.5 3.3 -3.1 0 c-2.1 0 -3.1 -0.5 -3.1 -1.5z"/>
  <path d="M433.4 539.5 c-8.6 -4.4 -11.2 -6.9 -15.2 -14.8 -3.9 -7.6 -5.1 -16.9 -3.3 -27 2.1 -12 8.4 -20 20.1 -25.4 7.4 -3.5 7.6 -3.5 18 -3 17.3 0.9 27.2 6.6 33.1 19 3.2 6.8 3.4 7.8 3.4 18.2 0 9.8 -0.3 11.6 -2.6 16.5 -2.9 6 -7.1 10.7 -13.4 14.9 -6.2 4.3 -9.9 5.1 -22 5.1 -10.9 0 -11.5 -0.1 -18.1 -3.5z m29.1 -15.5 c0.3 -0.6 -0.1 -1.3 -1 -1.6 -1.9 -0.8 -3 0 -2 1.5 0.8 1.4 2.2 1.4 3 0.1z m-22.7 -15.3 c-0.7 -1.5 -1.9 -2.9 -2.7 -3.2 -1 -0.4 -0.9 0.1 0.3 2 1.7 2.6 1.7 2.6 -1.1 2 -2.4 -0.5 -2.5 -0.4 -0.7 0.4 1.2 0.5 2.5 1.5 2.9 2.1 1.4 2.3 2.5 -0.6 1.3 -3.3z m14.6 -2.8 c-0.8 -1.4 -3.4 -1 -3.4 0.5 0 0.9 0.7 1.2 2 0.9 1.1 -0.3 1.7 -0.9 1.4 -1.4z m21.3 -0.4 c0.6 -1.8 -2.3 -4.9 -3.6 -4 -0.9 0.5 -0.9 1.1 -0.3 1.7 0.6 0.6 0.8 1.7 0.5 2.5 -0.4 1.1 0 1.4 1.2 1.2 1 -0.2 2 -0.9 2.2 -1.4z m-20.7 -4.6 c0 -0.5 -0.7 -0.9 -1.5 -0.9 -1.5 0 -2 1.2 -0.9 2.3 0.8 0.8 2.4 -0.1 2.4 -1.4z"/>
 </g>
 <g fill="#febc5a">
  <path d="M625.7 783.4 c-0.7 -0.7 0.1 -15.4 0.9 -16.3 0.8 -0.9 0.9 0.7 0.4 8.7 -0.3 4.6 -0.8 8 -1.3 7.6z"/>
  <path d="M215.6 775.1 c-0.4 -0.5 -0.2 -1.1 0.4 -1.3 0.6 -0.2 1.2 -1.4 1.5 -2.7 0.2 -1.4 1 -2.8 1.7 -3.2 0.7 -0.5 1.4 -1.3 1.4 -1.9 0.1 -0.5 0.2 -1.4 0.3 -2 0.1 -1.3 3.1 -1.3 3.1 -0.1 0 0.5 -0.3 1.1 -0.7 1.3 -0.5 0.2 -1.9 2.5 -3.3 5.1 -2.7 5.3 -3.6 6.2 -4.4 4.8z"/>
  <path d="M225.4 759.8 c0.9 -1.6 1.3 -2.8 0.9 -2.8 -0.4 0 0.3 -0.7 1.5 -1.6 1.2 -0.8 2 -2 1.7 -2.5 -0.4 -0.5 0.2 -0.9 1.1 -0.9 1 0 1.5 -0.3 1.1 -0.6 -0.3 -0.3 0.7 -1.7 2.4 -3.1 1.6 -1.4 2.7 -2.9 2.3 -3.4 -0.3 -0.5 0.7 -1.4 2.2 -1.9 1.5 -0.6 2.4 -1.3 2 -1.7 -0.9 -0.9 4.4 -6.3 6.1 -6.3 0.8 0 1.1 -0.5 0.8 -1 -0.3 -0.6 0.5 -1.4 1.9 -2 1.5 -0.5 2.5 -1.5 2.4 -2.1 -0.2 -0.7 0.7 -1.8 2 -2.4 1.3 -0.7 2.2 -1.6 2 -2.1 -0.1 -0.5 1 -1.5 2.4 -2.2 1.5 -0.7 3.7 -2.6 4.8 -4.2 1.2 -1.7 2.8 -3 3.5 -3 0.8 0 1.9 -0.9 2.5 -2 0.6 -1.1 1.6 -2 2.3 -2 0.7 0 2.8 -1.4 4.7 -3 3.4 -2.9 9.8 -6.5 10.5 -5.8 0.2 0.2 -4.4 3.7 -10.3 7.8 -11.2 7.9 -34.2 29.5 -42.7 40 -2.7 3.4 -6.1 7.4 -7.4 8.9 l-2.3 2.6 1.6 -2.7z"/>
  <path d="M624.8 729 c-0.7 -2.4 -0.3 -3.8 0.8 -2.8 0.3 0.4 0.4 1.7 0.2 3 l-0.3 2.3 -0.7 -2.5z"/>
  <path d="M617.4 699.8 c-1 -2.4 -3.8 -7.6 -6.1 -11.6 -4.4 -7.6 -4.9 -8.7 -3.4 -7.8 2.4 1.5 13.8 23.6 12.2 23.6 -0.4 0 -1.6 -1.9 -2.7 -4.2z"/>
  <path d="M287 701.6 c0 -1.6 45.6 -27.6 48.3 -27.6 2.3 0 -2 3 -8.9 6.4 -4.1 2 -12.7 6.7 -19 10.6 -6.4 3.8 -11.9 7 -12.2 7 -0.4 0 -1.8 0.9 -3.2 2 -2.2 1.7 -5 2.6 -5 1.6z"/>
  <path d="M602.6 675.2 l-2.9 -3.7 3.6 3.4 c3.9 3.6 4.2 4.1 3 4.1 -0.5 0 -2.1 -1.7 -3.7 -3.8z"/>
  <path d="M592.7 667.3 c-2.6 -1.9 -4.6 -3.8 -4.3 -4 0.5 -0.6 9.2 5.2 10.1 6.7 1.2 1.9 -1.1 0.9 -5.8 -2.7z"/>
  <path d="M580.1 660.5 c-3 -1.4 -5.1 -2.8 -4.8 -3.1 0.3 -0.3 3.1 0.8 6.3 2.5 7.1 3.6 6 4.1 -1.5 0.6z"/>
  <path d="M570.3 656.9 c-2.5 -0.9 -3 -1.9 -1 -1.9 1.5 0 4.3 1.7 3.7 2.3 -0.3 0.3 -1.5 0.1 -2.7 -0.4z"/>
  <path d="M564.5 655.2 c-2.9 -0.6 -4.3 -2.2 -1.9 -2.2 2 0 5.2 1.6 4.4 2.3 -0.3 0.2 -1.4 0.1 -2.5 -0.1z"/>
  <path d="M552 652.5 c-5.9 -1.5 -10.3 -2.1 -22 -3 -13.9 -1.1 -33.5 -3.8 -34.7 -4.8 -2.1 -1.6 -1.5 -2.7 1 -1.7 2.3 1 28 4.5 40.7 5.6 9.2 0.8 21.1 3.1 22.4 4.4 1.3 1.3 -0.5 1.2 -7.4 -0.5z"/>
  <path d="M492.5 638.9 c-1 -3.1 0 -3.3 1.9 -0.4 1.4 2.1 1.4 2.5 0.2 2.5 -0.8 0 -1.8 -0.9 -2.1 -2.1z"/>
  <path d="M231 558.4 c-27.7 -7.5 -42.7 -37.2 -32.2 -63.9 2.1 -5.4 9.2 -15.5 10.9 -15.5 1.3 0 1.4 0.2 3.9 11.4 1.6 7.1 1.6 7.9 0.2 8.7 -4.4 2.4 -5.2 15.1 -1.7 25.2 1.8 5.4 3.3 7.7 7 11 7 6.3 7.4 6.5 10.6 6.9 2.1 0.2 4.7 2.4 10.6 9.1 l7.8 8.7 -5.8 -0.1 c-3.2 0 -8.3 -0.7 -11.3 -1.5z"/>
  <path d="M257.4 556.2 c-1.7 -1.5 -4.5 -3.8 -6.3 -5.2 -3.7 -2.9 -4 -5 -0.8 -5 1.3 0 2.7 -0.4 3.2 -0.8 0.6 -0.5 2.9 -1.5 5.3 -2.2 6.5 -2 15.5 -11.1 18.1 -18.3 3.2 -8.8 2.9 -19.4 -0.8 -27.3 -3.2 -6.8 -10.1 -13 -19 -17.2 -4.8 -2.2 -6.3 -2.4 -14.1 -2 -7.1 0.4 -9.7 1.1 -14 3.4 -2.8 1.5 -6 3.9 -7 5.1 -2.3 2.9 -2.5 2.6 -4 -6.6 -1.5 -8.8 -1.7 -8.5 10.4 -13.2 7.5 -2.9 8.8 -3.1 16.6 -2.6 22.9 1.5 40.7 14.9 46 34.7 0.7 2.5 1.7 4.8 2.3 5.2 0.6 0.3 1 2.9 0.8 5.5 -0.1 2.7 0.3 6.1 0.8 7.5 0.8 2.2 0.7 2.5 -0.8 2.1 -1.5 -0.4 -1.9 0.3 -2.4 3.5 -1 6.1 -7.1 17.3 -12.4 22.5 -2.6 2.7 -7.4 6.2 -10.7 8 -3.2 1.7 -6 3.7 -6.3 4.4 -0.7 1.8 -1.4 1.6 -4.9 -1.5z"/>
  <path d="M436 551.7 c-13.9 -4.7 -24.6 -14.4 -29.6 -27 -2.6 -6.5 -2.9 -8.3 -2.9 -18.7 0 -11.2 0.1 -11.7 3.7 -19.3 5.1 -10.7 11.7 -17.4 22.7 -23 15 -7.6 27.7 -7.5 43.8 0.5 12.2 6.1 18.5 12.9 23.8 25.9 2.1 5.2 2.5 7.8 2.5 16.1 0 6.6 -0.5 11.1 -1.5 13.5 -1.4 3.3 -1.4 3.8 -0.1 4.5 1.3 0.7 1 1.5 -1.4 5.1 -2.9 4.1 -15.8 18 -19.3 20.6 -1.5 1.2 -1.7 1.2 -1.1 -0.3 0.8 -2.1 -0.3 -2 -5.3 0.4 -9.7 4.6 -24.6 5.4 -35.3 1.7z m27.1 -12.9 c8.2 -2.7 16.9 -10.7 20.7 -18.8 2.2 -4.5 2.6 -7 2.6 -13.5 0 -7 -0.4 -8.9 -3.3 -15.2 -5.4 -11.4 -15.4 -17.7 -29.9 -18.9 -7.3 -0.6 -8.1 -0.4 -15.2 2.9 -11.8 5.4 -18.1 13.5 -20.1 25.6 -1.4 8.3 -0.2 14.8 4.1 22.4 3.8 6.9 6.2 9 14.5 13.2 6.1 3.2 7.6 3.5 15 3.5 4.5 0 9.7 -0.5 11.6 -1.2z"/>
 </g>
 <g fill="#fefffd">
  <path d="M204.3 280.4 c-1.1 -2.8 1.7 -15.5 4.4 -20.1 3.4 -5.8 11.2 -13.2 13.9 -13.3 5 0 5 6.6 0 11.9 -1.3 1.4 -3.9 5.5 -5.7 9.1 -5.7 11.3 -11 16.6 -12.6 12.4z"/>
  <path d="M225 242 c0 -3.3 2.7 -6.6 11.2 -13.7 11.7 -9.7 12.8 -10.4 30.9 -19.7 15.5 -7.9 24.9 -11.6 32.6 -13 4.1 -0.7 8 2.3 8.9 6.8 1.2 6.8 -3.2 11 -13.1 12.6 -3.8 0.6 -10.3 2 -14.3 3.1 -4 1 -8.1 1.9 -9.1 1.9 -4.9 0 -16.9 6.9 -24.5 14.1 -6.8 6.5 -8.4 7.5 -13.4 8.6 -8.1 1.7 -9.2 1.6 -9.2 -0.7z"/>
 </g>
</svg>