<?xml version="1.0" encoding="utf-8"?>
<!DOCTYPE svg PUBLIC "-//W3C//DTD SVG 20010904//EN" "http://www.w3.org/TR/2001/REC-SVG-20010904/DTD/svg10.dtd">
<svg version="1.0" xmlns="http://www.w3.org/2000/svg" width="1280px" height="800px" viewBox="0 0 1280 800" preserveAspectRatio="xMidYMid meet">
 <g fill="#fff4e4">
  <path d="M0 400 l0 -400 640 0 640 0 0 400 0 400 -640 0 -640 0 0 -400z m868 382.4 c13.7 -2 20.3 -3.2 27 -5 3 -0.8 10 -2.5 15.6 -3.8 5.5 -1.2 11.3 -2.9 13 -3.8 1.6 -0.8 6.1 -3 9.9 -4.8 16.3 -7.7 20.6 -13.4 23 -30.2 l0.7 -4.8 6.8 0 c5.5 0 7.4 -0.4 10.4 -2.5 2 -1.4 3.9 -2.5 4.2 -2.5 1 0 10.4 -7.5 10.4 -8.3 0 -0.5 1.4 -2.5 3 -4.4 1.7 -1.8 3 -4 3 -4.8 0 -0.8 0.5 -1.5 1 -1.5 0.6 0 1 -1.1 1 -2.4 0 -1.3 0.8 -3.4 1.8 -4.7 4.1 -5.3 6.2 -14.1 6.2 -25.2 0 -17.6 -4.9 -34.1 -12.5 -41.9 -4.2 -4.3 -12.8 -7.3 -18.4 -6.4 -7.5 1.1 -10.7 1.9 -12.1 3.1 -0.8 0.7 -3.1 2.1 -5 3 -1.9 1 -3.8 2.2 -4.1 2.8 -0.4 0.5 -3 1.2 -5.8 1.5 -4.7 0.4 -5.1 0.3 -5.1 -1.7 0 -6 -5.1 -22.7 -9.4 -30.6 -2.6 -4.9 -4.5 -6.9 -10.1 -10.7 -3.9 -2.6 -8.3 -5.4 -9.9 -6.3 -2.8 -1.4 -21.7 -3.8 -31.6 -3.9 -8.5 -0.1 -48.5 4.6 -56 6.6 -4.1 1.1 -9.7 2.5 -12.5 3.3 -5.9 1.5 -20.7 7 -24.4 9 -1.4 0.7 -5.2 2.6 -8.4 4.1 -6.7 3.1 -10.2 7.1 -11.6 13.4 -1.5 6.5 -1.3 18.2 0.4 28 2.3 12.3 3.5 25 4.5 46.5 0.5 10.5 1.4 22.8 1.9 27.5 0.6 4.7 1.1 11.3 1.1 14.6 0 7.7 2.5 20.6 5.1 26 1 2.2 1.9 4.5 1.9 5.1 0 0.9 1.4 2.6 7.1 9 4.7 5.1 32.1 9.5 54.4 8.7 7.2 -0.3 17.7 -1.2 23.5 -2z m-785.9 -129.5 c7.5 -8.6 7.5 -8.5 3.4 -10.5 -1.9 -0.9 -6.6 -4.6 -10.5 -8.3 -6.4 -6.1 -7.1 -6.5 -9 -5.2 -1.1 0.7 -2 1.9 -2 2.6 0 0.6 -1.1 2.5 -2.4 4 -5.7 6.6 -5.8 10 -0.4 16.1 3.6 4 9 7.1 12.9 7.3 2.1 0.1 3.9 -1.3 8 -6z m26.5 -28.1 c7.6 -7.9 11.6 -11.9 39.2 -39.2 13.9 -13.7 25.2 -25.1 25.2 -25.3 0 -0.5 17.2 -20.3 22.8 -26.1 2.3 -2.5 4.2 -4.6 4.2 -4.7 0 -0.2 1.5 -2 3.4 -4.1 24.9 -28 42.6 -49 42.6 -50.4 0 -0.6 0.9 -1 2 -1 3.7 0 3.6 -4.3 -0.4 -10.7 -3.9 -6.5 -8.8 -10.3 -13 -10.3 -4.3 0 -11.7 5.4 -18 13 -3.1 3.8 -5.6 7.1 -5.6 7.5 0 0.3 -1.1 1.6 -2.4 2.8 -5 4.6 -44.7 50.1 -45.6 52.2 -0.3 0.6 -2.2 2.6 -4.2 4.4 -2.1 1.8 -3.8 3.8 -3.8 4.4 0 0.7 -40.2 41 -59.3 59.4 -4.4 4.2 -10.7 11.2 -12.1 13.5 -1.7 2.6 -1.7 2.8 1.2 7 5.4 7.8 14.6 15.2 17.2 13.8 0.8 -0.5 3.8 -3.2 6.6 -6.2z m153.8 -184 c-0.3 -0.4 -1.7 -0.8 -3.2 -0.8 l-2.7 0.1 2.4 2 c1.8 1.5 2.6 1.7 3.2 0.7 0.4 -0.6 0.5 -1.6 0.3 -2z m690.8 -49.6 c0.3 -0.8 7.4 -2.9 33.8 -9.7 9.6 -2.5 21.6 -5.7 26.5 -7.1 5 -1.3 9.6 -2.4 10.3 -2.4 0.6 0 1.2 -0.9 1.2 -2 0 -1.6 0.7 -2 3.5 -2 2.5 0 3.5 0.4 3.5 1.6 0 1.1 0.5 1.4 1.6 1 0.9 -0.3 2 -0.6 2.5 -0.6 0.5 0 0.9 -0.9 0.9 -2 0 -1.7 0.7 -2 4.5 -2 3.2 0 4.5 0.4 4.5 1.4 0 1.1 0.7 1.2 3.3 0.5 1.7 -0.5 6.7 -1.6 11 -2.5 4.6 -1 7.7 -2.1 7.7 -2.9 0 -3.2 -2.3 -7.5 -4.1 -7.5 -1.1 0 -1.9 -0.7 -1.9 -1.6 0 -1.2 -0.7 -1.5 -2.7 -1.2 -36.7 6.4 -47.9 8.8 -63.8 13.8 -3.3 1 -10.7 3 -16.5 4.4 -14.7 3.6 -24.3 6.4 -24.9 7.5 -0.3 0.4 -1.7 1.2 -2.9 1.6 -2 0.6 -2.3 1.2 -1.8 3.6 0.3 1.6 0.9 4.3 1.2 5.9 0.6 2.8 1.8 3.9 2.6 2.2z m134.1 -32.4 c2.2 -2.6 2.2 -3.7 -0.6 -7.1 -1.9 -2.4 -2.7 -2.7 -5.5 -2.1 -2.8 0.6 -3.3 1 -2.8 2.8 0.3 1.2 0.9 3.8 1.2 5.8 0.6 3.5 0.9 3.7 3.3 3.2 1.4 -0.3 3.4 -1.5 4.4 -2.6z m-773.7 -20.8 c2.8 0 2.9 -0.1 2.6 -4.3 -0.3 -3.5 0.2 -4.9 2.8 -8.2 1.8 -2.2 4.3 -5.9 5.7 -8.3 1.4 -2.3 3.3 -4.7 4.3 -5.2 3 -1.6 9.5 -1.2 14.3 0.9 4.6 2 5.7 3.5 5.7 7.9 l0.1 2.7 1.4 -2.5 c0.8 -1.4 1.4 -3.2 1.5 -4.1 0 -3.1 -9.4 -9.9 -14 -9.9 -1.6 0 -2 -0.6 -2 -3.2 0 -3.2 2.8 -11.9 4.3 -13.4 1.2 -1.2 0.8 -4.4 -0.9 -8 -1.9 -3.9 -8.8 -10.9 -15.9 -15.8 -2.7 -2 -6 -4.3 -7.3 -5.3 -6.9 -5 -18.9 -10.5 -24.4 -11.1 -4.7 -0.4 -4.9 -0.3 -9.3 4.4 -2.4 2.7 -5.2 6.5 -6.2 8.4 -1 1.9 -2 3.7 -2.3 4 -0.3 0.3 -1.7 2.1 -3 4 -1.3 1.9 -2.9 4 -3.5 4.7 -0.5 0.7 -2.6 3.3 -4.5 5.9 -1.9 2.5 -5.2 6.7 -7.3 9.2 -2 2.6 -4.4 6.5 -5.3 8.8 -1.5 3.8 -1.4 4.4 0.2 7.5 2 4 17.6 19.4 22 21.7 1.7 1 6.9 3.7 11.5 6.2 4.6 2.5 11.1 5.2 14.4 6.1 5.9 1.6 6 1.6 9.1 -0.7 1.7 -1.3 4.4 -2.4 6 -2.4z m894.7 -22.3 c1.8 -0.8 3.8 -2.6 4.6 -4 0.8 -1.5 2 -2.7 2.6 -2.7 0.7 0 1 -1.1 0.7 -2.8 -0.6 -4.2 5 -22.8 7.2 -24.4 0.6 -0.4 3.9 -0.8 7.2 -0.8 4.7 0 6.7 0.5 8.8 2.1 1.4 1.1 2.6 1.6 2.6 1 0 -2.5 -6.6 -6 -12 -6.3 l-5.5 -0.3 0 -8 c0 -6.5 -0.4 -8.5 -2 -10.6 -6.3 -8.4 -37.5 -17.8 -48.5 -14.7 -3.2 0.9 -6.1 6 -8.5 14.8 -0.9 3.6 -3.9 13.1 -6.7 21.3 -5.7 16.9 -5.7 18.9 0 22.7 2 1.4 4.3 3.1 5 3.7 0.7 0.7 2.5 1.6 4 1.9 1.5 0.4 3.7 1.3 5 2.1 2.7 1.7 23 6.1 28.5 6.2 2.1 0.1 5.2 -0.5 7 -1.2z m-229.9 -52.6 c0.3 -0.5 -0.1 -1.1 -0.9 -1.5 -0.9 -0.3 -1.5 0 -1.5 0.9 0 1.6 1.6 2 2.4 0.6z m27.6 -15.5 c0 -0.6 2.2 -3.7 4.8 -6.8 2.6 -3.1 7.9 -9.5 11.7 -14.3 3.9 -4.7 13.1 -15.9 20.5 -24.9 7.4 -8.9 14.9 -17.9 16.5 -20.1 6 -7.8 17 -20.2 26.6 -30 29 -29.8 37.2 -38.4 39.9 -42.2 l3.1 -4.1 -5.3 -5.4 c-2.9 -2.9 -7 -6.2 -9 -7.3 l-3.7 -1.9 -4.7 4.9 c-2.6 2.8 -10.8 11.1 -18.1 18.6 -7.3 7.4 -13.3 14.1 -13.3 14.7 0 0.7 -0.6 1.2 -1.3 1.2 -1.2 0 -12.3 11.5 -21.7 22.5 -2.3 2.8 -5.2 6.1 -6.4 7.5 -9 10.7 -15.6 19 -15.6 19.8 0 0.6 -0.8 1.7 -1.7 2.4 -1 0.7 -4.4 4.5 -7.6 8.3 -3.3 3.9 -6.6 7.9 -7.6 9 -18.6 22.2 -25.1 30.9 -25.1 33.4 0 1.2 -0.4 2.1 -1 2.1 -0.5 0 -1 1.4 -1 3 0 2.2 1.1 4.3 3.8 7.1 3 3.2 4.7 4.1 8.7 4.8 5 0.7 7.5 0 7.5 -2.3z m-726.9 -65.9 c3.1 -2.6 4.9 -5.8 6 -10.5 1.2 -5.7 -0.4 -7.6 -8.7 -10.4 l-7.4 -2.6 0 3.2 c0 1.7 -1.2 5.8 -2.6 9.1 -4 9.3 -4 8.9 1.3 11.2 6.2 2.7 8.2 2.7 11.4 0z m-29.8 -14.9 c3.3 -4.4 5.9 -9.6 6.8 -13.6 l0.7 -3.2 -20.2 -10.1 c-11 -5.6 -20.6 -10.5 -21.1 -10.9 -1.4 -1.2 -39.2 -20 -40.1 -20 -0.4 0 -5.2 -2 -10.8 -4.4 -5.5 -2.4 -13.5 -5.8 -17.6 -7.4 -4.1 -1.7 -12.2 -5.2 -18 -7.7 -25.1 -11.2 -42 -17.4 -42 -15.4 0 0.5 -1.1 0.9 -2.4 0.9 -1.6 0 -3.5 1.3 -5.5 3.7 -4.1 5 -4.4 11.4 -0.5 14.9 1.4 1.3 3 2.4 3.6 2.4 1.3 0 21.1 8.1 46.3 19 9.9 4.3 20.3 8.7 23 9.8 20.2 8 33.7 14.6 69.5 33.6 12.9 6.8 22.9 11.5 24.7 11.6 0.7 0 2.3 -1.5 3.6 -3.2z m532.5 -10.4 c10 -2 21.6 -5.9 26.8 -8.9 4 -2.4 6.5 -6 7.9 -11.7 0.4 -1.7 1.5 -2.8 2.8 -3.1 1.5 -0.3 1.2 -0.5 -1 -0.6 -3.5 -0.1 -3.3 0.4 -5.4 -10.6 -1.7 -8.8 -2.2 -14.2 -1.5 -17 0.9 -3.5 8.2 -6.8 14 -6.3 4.3 0.3 4.5 0.2 3.2 -1.7 -1.8 -2.8 -6.1 -3 -10.2 -0.6 -1.9 1.2 -5 2.1 -6.7 2.1 -2.8 0 -3.4 -0.5 -4.9 -4.3 -1 -2.3 -1.8 -4.7 -1.8 -5.3 0 -1.6 -5.1 -6.8 -8 -8.1 -4.6 -2.1 -7.3 -2.2 -17.9 -0.8 -12.8 1.7 -19.2 3.6 -28.9 8.3 -10.4 5 -11 6.2 -8.9 17.1 1 4.7 2.4 13.6 3.2 19.6 2.6 19.6 3.3 23.2 4.8 26.1 2 3.8 4.6 6.1 7.7 6.7 5.7 1 17.6 0.6 24.8 -0.9z m365.1 -69.1 c2.3 -3.1 4.1 -6.4 4.1 -7.4 0 -4.1 -12.6 -14 -16.1 -12.7 -0.8 0.3 -3.6 3.3 -6.2 6.6 l-4.7 6.1 3.6 1.7 c2 1 5.9 3.9 8.8 6.5 2.8 2.7 5.4 4.8 5.8 4.9 0.4 0 2.5 -2.5 4.7 -5.7z"/>
  <path d="M850 740.3 c-12.5 -0.7 -13.8 -1.1 -19.5 -6.6 -4.1 -4 -5.7 -6.4 -6.9 -10.6 -2.7 -9.1 -1.6 -22.3 2.2 -26.4 1.6 -1.8 8.4 -6.7 12 -8.6 4.7 -2.5 18.5 -5.3 28.7 -5.8 10.7 -0.6 11.2 -0.5 18.9 2.7 7.4 3.1 7.9 3.5 10.2 8.4 4.2 9 2.8 23.1 -3.1 30.4 -7 8.6 -15.1 14 -22.4 14.9 -2.8 0.3 -5.4 1 -5.7 1.4 -0.5 0.9 -2.4 0.9 -14.4 0.2z"/>
  <path d="M955.5 718 c-1.3 -1.4 -1.9 -4.6 -2.5 -12.7 -0.5 -5.9 -1.4 -14.2 -2 -18.3 -0.6 -4.1 -1.6 -10.2 -2.1 -13.5 -0.5 -3.3 -0.9 -8 -0.9 -10.5 0 -4.1 0.4 -4.8 4.8 -8.6 6.1 -5.3 15 -8.4 24 -8.4 9.5 0 12.9 1.9 17 9.7 9.1 17.6 2.3 53.2 -11.4 58.9 -1.9 0.8 -3.4 1.8 -3.4 2.3 0 1.5 -7.6 3.1 -14.7 3.1 -5.7 0 -7.3 -0.4 -8.8 -2z"/>
  <path d="M281.4 318.1 c-2.2 -1 -5.5 -3.6 -7.2 -5.9 -2.8 -3.5 -3.2 -4.7 -3.2 -10.1 0 -5.3 0.4 -6.4 3.1 -9.6 2.9 -3.2 3.5 -3.5 8.9 -3.5 6.1 0 15.5 3.5 19.1 7.1 7.5 7.5 6 18 -3.1 22.9 -3.1 1.6 -13.1 1.1 -17.6 -0.9z"/>
  <path d="M1178 300.8 c-4.4 -1.2 -6.7 -4.1 -7.6 -9.5 -0.8 -5.3 1 -10.7 4.3 -12.8 4.2 -2.8 17.6 -1.7 23.6 1.9 l4.7 2.7 0 6.1 c0 5.7 -0.2 6.3 -3.6 9.4 -3.4 3.2 -3.9 3.4 -10.7 3.3 -4 0 -8.8 -0.5 -10.7 -1.1z"/>
  <path d="M771 143.3 c-6.6 -0.6 -9.3 -3.9 -9.8 -12 -0.5 -7.1 0 -8.1 6.3 -12.2 3.6 -2.3 4.9 -2.6 13.6 -2.6 12.6 0 13.9 1 13.9 10.3 0 5.5 -0.4 7.1 -2.6 10 -1.5 1.9 -4.5 4.3 -6.8 5.3 -4 1.8 -5.5 1.9 -14.6 1.2z"/>
 </g>
 <g fill="#f16c65">
  <path d="M817.5 786.9 c-2.2 -0.4 -7.1 -1.3 -11 -1.9 -10.3 -1.8 -16.9 -3.8 -19.1 -5.9 -4 -3.9 -7.8 -9.2 -8.1 -11.3 -0.2 -1.2 -0.9 -3.1 -1.7 -4.3 -1.2 -1.9 -3.1 -9.2 -2.8 -10.7 0.1 -0.5 -0.2 -0.8 -0.6 -0.8 -0.8 0 -1 -2.1 -1.1 -13 -0.1 -3.6 -0.6 -10.3 -1.1 -15 -1 -8.4 -1.5 -15.6 -2.5 -36 -0.5 -10.4 -1.9 -24.7 -2.9 -30.5 -0.3 -1.6 -0.8 -5.2 -1.2 -7.9 -0.3 -2.7 -0.9 -5.9 -1.3 -7 -0.7 -2 -0.5 -19.7 0.2 -24.1 1.3 -7.7 5 -12.5 12.4 -15.9 3.2 -1.5 7 -3.4 8.4 -4.1 1.4 -0.8 6.3 -2.8 10.9 -4.5 4.5 -1.7 8.8 -3.4 9.4 -3.7 0.6 -0.4 2.6 -0.8 4.4 -1 1.8 -0.1 4 -0.7 5 -1.1 3.1 -1.6 15.5 -4.1 26.2 -5.2 5.8 -0.7 11.9 -1.3 13.5 -1.5 12.1 -1.4 20 -2 26.5 -2 11.9 0.1 31.4 2.3 34.6 4 8 4.3 16.9 11.3 19.1 15 3.3 5.9 8 18.4 8.6 23 0.3 2.2 1 5.2 1.5 6.5 0.5 1.4 0.7 3.1 0.4 3.9 -0.3 1 0.2 1.1 1.9 0.6 1.3 -0.4 2.6 -1.1 2.9 -1.5 0.3 -0.4 2.1 -1.5 4 -2.5 1.9 -0.9 4.2 -2.3 5 -3 3.7 -3.1 19.6 -4.3 27.3 -2 14 4 21.7 21.9 21.7 50.2 0 11.4 -0.4 14.6 -2.2 19.7 -1.2 3.4 -2.7 6.8 -3.5 7.7 -0.7 0.9 -1 1.9 -0.6 2.2 0.3 0.4 0.1 0.7 -0.5 0.7 -0.7 0 -1.2 1.1 -1.2 2.5 0 1.4 -0.4 2.5 -1 2.5 -0.5 0 -1 0.7 -1 1.5 0 0.8 -1.3 3 -3 4.8 -1.6 1.9 -3 3.9 -3 4.4 0 0.8 -9.4 8.3 -10.4 8.3 -0.3 0 -2.2 1.1 -4.2 2.5 -3 2.1 -4.9 2.5 -10.5 2.5 -4.8 0 -6.9 0.4 -7 1.3 -0.1 0.6 -0.2 2.6 -0.4 4.2 -0.3 3.9 -2.9 12.4 -4.9 16.3 -1.9 3.7 -9 8.9 -18.1 13.2 -3.8 1.8 -8.6 4.1 -10.5 5.1 -2 1 -5 2.1 -6.8 2.4 -4.5 0.8 -14.8 3.1 -21.2 4.9 -6.1 1.6 -11.8 2.7 -26.5 5.1 -11 1.7 -47.4 2.7 -54 1.4z m47.5 -33.3 c0 -0.2 -0.7 -0.9 -1.5 -1.6 -1.2 -1 -1.5 -1 -1.5 0.4 0 0.9 0.7 1.6 1.5 1.6 0.8 0 1.5 -0.2 1.5 -0.4z m-3.6 -16.5 c0.3 -0.4 2.9 -1.1 5.7 -1.4 6 -0.7 11.9 -3.9 17.4 -9.6 5.5 -5.5 5.8 -5.9 8.3 -11.3 2.8 -6.2 2.8 -12 -0.2 -18.4 -2.3 -4.9 -2.8 -5.3 -10.2 -8.4 -7.4 -3.1 -8.3 -3.2 -16.2 -2.6 -8 0.6 -21.5 3.6 -25.4 5.7 -3.6 2 -10.4 6.8 -12.1 8.6 -0.9 1.1 -2.2 4.5 -2.8 7.6 -1 4.8 -0.9 6.8 0.5 12.1 1.5 5.3 2.6 7.1 7.1 11.4 5.8 5.4 7.2 5.8 19.5 6.5 3 0.2 6 0.4 6.7 0.5 0.6 0.1 1.4 -0.2 1.7 -0.7z m110.7 -21.3 c2.2 -0.6 3.9 -1.5 3.9 -1.9 0 -0.5 1.5 -1.5 3.4 -2.3 5.8 -2.4 11.3 -11.5 14 -23.6 1.4 -5.8 1.5 -14.6 0.3 -22 -0.7 -4.1 -5.7 -12.9 -8.3 -14.6 -6.7 -4.4 -21 -1.6 -29.4 5.8 -5 4.5 -5.5 6.3 -4 14.8 2 10.6 3.9 25.9 4.1 32 0.1 3.3 0.6 6.3 1.1 6.6 0.4 0.3 0.6 1 0.2 1.5 -0.3 0.6 0.2 1.9 1.2 3 2 2.2 7.6 2.5 13.5 0.7z m-169 -41.3 c3.1 -5.5 -0.6 -21.5 -5 -21.5 -6.2 0 -7.6 16.9 -2 22.9 2.7 2.8 4.8 2.4 7 -1.4z m109.9 -7.3 c0 -1.6 -1 -5.9 -2.1 -9.6 -2.3 -7.2 -6 -10.9 -10 -9.9 -3.2 0.9 -3.8 3.4 -2.5 10.3 1.5 7.8 3.6 12.7 6.7 15.9 l2.2 2.4 2.9 -3.2 c1.7 -1.9 2.8 -4.3 2.8 -5.9z"/>
  <path d="M67 660.9 c-14.2 -6.7 -17.3 -19.4 -7.3 -29.7 0.7 -0.7 1.3 -1.9 1.3 -2.7 0 -0.7 1.2 -2.1 2.8 -3.1 1.5 -0.9 3.5 -2.6 4.4 -3.7 1.9 -2.1 4.3 -1.4 3.3 1.1 -0.4 1.1 1.5 3.6 6.5 8.3 7.4 7.1 12.1 9.9 16.5 9.9 1.5 0 2.5 0.4 2.3 1 -0.3 0.9 -3.7 4.9 -13.8 16.2 -4.5 5 -9.4 5.8 -16 2.7z"/>
  <path d="M1072 367.1 c0 -0.5 0.6 -1.1 1.4 -1.4 0.9 -0.4 1.3 -1.5 1 -2.9 l-0.5 -2.3 1 2.3 c1.6 3.5 2.4 2.6 1.7 -1.8 -0.7 -4.5 -3.5 -11 -4.8 -11 -0.4 0 -0.8 -0.4 -0.8 -0.8 0 -0.8 5.6 -2.6 12.2 -3.9 4.2 -0.8 8.8 4.5 8.8 10.1 0 5.9 -1.9 8 -8.4 9.5 -3.1 0.7 -5.9 1.3 -6.3 1.3 -0.5 0 -1.8 0.4 -3 0.9 -1.3 0.5 -2.3 0.5 -2.3 0z"/>
  <path d="M295.5 344.2 c-3.3 -0.9 -9.8 -3.7 -14.4 -6.2 -4.6 -2.5 -9.8 -5.2 -11.5 -6.2 -5.1 -2.7 -20.5 -18.3 -22.5 -22.8 -2.8 -6.3 -0.9 -13.2 6.1 -21.7 1.8 -2.3 4.9 -6.2 6.8 -8.7 1.9 -2.5 4.3 -5.6 5.3 -6.9 1 -1.2 2.6 -3.4 3.5 -4.9 0.9 -1.6 1.9 -2.8 2.3 -2.8 0.4 0 0.9 -1 1.3 -2.2 0.8 -3.1 9 -12.9 12.2 -14.6 1.8 -0.9 4.2 -1.2 7.6 -0.8 5.6 0.7 19 5.9 20.9 8.2 0.6 0.8 1.7 1.4 2.3 1.4 0.7 0 2.1 0.8 3.2 1.8 1 0.9 4.4 3.4 7.4 5.5 7.4 5 14.4 12 16.4 16.1 1.7 3.6 2.2 12.6 0.7 14.2 -0.4 0.5 -1.3 2.3 -1.9 3.9 -0.5 1.7 -1.3 3.8 -1.7 4.8 -0.5 1.3 -0.2 1.7 1.4 1.7 3 0 9.1 3.3 12 6.4 3.3 3.5 3 8.9 -0.8 16.4 -3.2 6.4 -11.9 15.2 -15 15.2 -1.1 0 -2.3 0.5 -2.6 1 -1 1.7 -16.1 1.2 -17.9 -0.5 -1.9 -2 -2.4 -1.9 -6.2 1 -3.8 2.9 -6.6 3 -14.9 0.7z m36.7 -6.2 c7.4 -2.1 15.1 -12.4 13.3 -18.1 -0.8 -2.5 -9 -6.2 -12.2 -5.4 -1.3 0.3 -4.1 3.3 -6.7 7.3 -2.5 3.7 -5.2 7.6 -6.1 8.8 -2 2.7 -1.1 4.8 2.8 6.8 3.8 1.9 4.2 1.9 8.9 0.6z m-36.2 -22 c2.8 -1.5 6.6 -5.2 7.3 -7.3 0.7 -2 -1.4 -6.8 -4.2 -9.6 -2.6 -2.6 -12.8 -7.1 -16.1 -7.1 -3.8 0 -9 5.9 -9 10.1 0 8.6 14.7 17.8 22 13.9z"/>
  <path d="M1183.3 317.5 c-6.1 -1.3 -12.2 -3 -13.5 -3.8 -1.3 -0.8 -3.5 -1.7 -5 -2.1 -1.5 -0.3 -3.3 -1.2 -4 -1.9 -0.7 -0.6 -3 -2.3 -5 -3.7 -6.4 -4.3 -6.4 -9.7 -0.2 -28 2.5 -7.4 5.6 -17.2 6.9 -21.6 2.7 -9.9 5.2 -14.3 8.5 -15.2 1.4 -0.4 6.6 -0.7 11.5 -0.6 7.2 0 11 0.7 19.5 3.3 12.1 3.8 20.6 8.1 23.5 12 1.6 2 2 4.3 2.2 10.6 l0.2 8 4.9 0 c3.8 0 5.7 0.6 8.4 2.7 4.1 3.1 4.8 5.7 3.7 12.9 -1.2 7.4 -4.7 13.7 -10.2 18.3 -4.4 3.7 -5.2 4 -11.2 4 -5.7 0.1 -6.6 0.4 -7.7 2.5 -3 5.6 -14.1 6.5 -32.5 2.6z m47.5 -12.1 c3.7 -2.2 8.2 -9.8 8.2 -13.9 0 -4.1 -3.8 -7.5 -8.4 -7.5 -4.5 0 -5.2 0.8 -7.6 8.5 -1.2 3.9 -2.5 8.2 -3 9.7 -0.7 2.2 -0.5 3 0.8 3.8 2.6 1.4 7.1 1.2 10 -0.6z m-34.4 -9.8 c5.3 -4.9 5 -8.7 -0.9 -12.1 -9 -5.3 -19.5 -4.1 -21.2 2.4 -2.1 7.9 3.3 12.8 14.4 13 3.4 0.1 4.8 -0.5 7.7 -3.3z"/>
  <path d="M262.3 183.4 c-6.8 -3.2 -9.6 -6.4 -5.5 -6 2.7 0.2 8.5 -12.2 9 -19.5 0.4 -6 1.1 -6.9 3 -4.6 0.6 0.7 4.9 2.6 9.6 4.1 9.9 3.3 11.3 5.2 10.2 13.8 -2.1 15.3 -11.1 19.5 -26.3 12.2z"/>
  <path d="M754 160.3 c-3.1 -0.6 -5.7 -2.9 -7.7 -6.7 -1.5 -2.9 -2.2 -6.7 -4.8 -26.6 -0.9 -6.3 -2.2 -14.5 -3 -18.2 -1.9 -8.5 -1.9 -15.8 0 -18.4 1.9 -2.9 14.7 -8.9 23.6 -11.3 15.5 -4.1 32.7 -4.9 38.3 -1.8 2.9 1.6 7.6 6.8 7.6 8.3 0 0.8 0.8 3 1.7 5.1 1 2.1 1.8 3.9 1.8 4 0.1 0.1 2.3 -0.9 5 -2.3 11.2 -5.7 19.3 0.6 21 16.4 1.3 11.2 -6.1 25.2 -14.4 26.8 -2.1 0.5 -3.1 1.4 -3.6 3.3 -1.4 5.6 -3.9 9.2 -7.9 11.6 -5.2 3 -16.8 6.9 -26.8 8.9 -7.2 1.5 -24.8 2 -30.8 0.9z m34.8 -26 c3.9 -4.5 4.4 -9.9 1.1 -12.9 -3.4 -3 -14.2 -2.6 -19.4 0.7 -5.8 3.8 -6.9 5.4 -6.2 9.4 0.8 5.2 4.3 8.3 9.7 8.7 6 0.5 10.8 -1.5 14.8 -5.9z m37.4 -7.3 c7.8 -6.1 7.7 -23.8 -0.2 -25.5 -2.9 -0.6 -10.9 2.8 -11.1 4.8 -0.4 4 0.4 10.1 2.6 20.5 0.7 2.9 5.2 3 8.7 0.2z"/>
  <path d="M1138.7 101.3 c-0.4 -0.3 -0.2 -1.2 0.4 -1.9 2.4 -2.9 -11.9 -15 -19.3 -16.2 l-4.2 -0.7 2.5 -2.5 c1.4 -1.4 4.9 -5.5 7.7 -9.1 6.1 -7.9 9.1 -8.9 16 -5.7 8.1 3.8 13.2 9.6 13.2 15.1 0 4.8 -14.3 23.1 -16.3 21z"/>
 </g>
 <g fill="#fec777">
  <path d="M99 637.7 c0 -1.5 -1.1 -2.9 -3.2 -4.1 -4.7 -2.8 -10.6 -8.4 -13.9 -13.3 -2.3 -3.2 -3.7 -4.3 -5.6 -4.3 l-2.7 0 2.9 -3 c1.6 -1.6 2.6 -3 2.2 -3 -1 0 9 -11.7 14 -16.4 11.3 -10.5 59.2 -58.4 58.8 -58.8 -0.3 -0.3 1.4 -2.2 3.7 -4.4 2.4 -2.1 4.5 -4.3 4.8 -5 0.9 -2.1 40.7 -47.6 45.6 -52.1 1.3 -1.2 2.4 -2.5 2.4 -2.8 0 -0.4 2.5 -3.7 5.6 -7.5 5.4 -6.5 15.2 -13.9 21.6 -16.4 3.4 -1.3 4.8 -0.1 2.2 1.9 -1.8 1.4 -1.8 1.4 0.5 1.5 4 0 9.5 4.6 13.1 10.9 l3.5 5.9 1.2 -2.6 1.1 -2.7 0.1 3.2 c0.1 4.4 -3.8 12.3 -6.1 12.3 -1 0 -1.8 0.4 -1.8 1 0 1.4 -17.7 22.4 -42.6 50.4 -1.9 2.1 -3.4 3.9 -3.4 4.1 0 0.1 -1.9 2.2 -4.2 4.7 -5.7 6 -22.8 25.6 -22.8 26.1 0 0.3 -7.4 7.8 -16.4 16.8 -9.1 9 -16.2 16.7 -16 17.1 0.3 0.4 -0.1 0.8 -0.8 0.8 -1.4 0 -17.9 15.8 -28.9 27.6 -2 2.1 -5.3 5.4 -7.3 7.2 -2 1.8 -3.6 3.6 -3.6 4 0 0.4 -0.9 1.3 -2 2 -1.8 1.1 -2 1 -2 -1.1z"/>
  <path d="M946.3 394 c-2.8 -1.2 -3 -2.4 -0.3 -1.7 2.3 0.6 2.5 -0.8 0.5 -4.3 -0.8 -1.4 -1.1 -3.8 -0.8 -5.5 0.5 -2.5 0.3 -2.8 -0.8 -1.7 -1.7 1.6 -3 1.5 -2.3 -0.2 0.3 -0.7 2.2 -2.2 4.2 -3.2 2 -1.1 4 -2.2 4.3 -2.7 0.6 -0.8 10.1 -3.7 24.4 -7.2 14.5 -3.7 15.9 -4 27.5 -7.4 5.8 -1.7 15.7 -4 22 -5.2 6.3 -1.1 17.1 -3.1 24 -4.4 12.9 -2.5 23 -3.1 23 -1.4 0 0.5 -0.9 0.9 -2 0.9 -2.3 0 -2.4 0.4 -0.8 3.3 1.5 2.8 1.9 4.3 2 9 0 2 0.5 3.7 0.9 3.7 0.5 0 0.9 0.5 0.9 1.1 0 0.6 -0.7 0.9 -1.5 0.5 -0.8 -0.3 -5.7 0.4 -10.7 1.5 -5.1 1.1 -15.9 3 -24 4.3 -8 1.3 -17.9 3.3 -22 4.5 -4 1.1 -15.2 4.1 -24.8 6.6 -26.1 6.8 -33.5 8.9 -33.8 9.7 -0.5 1.1 -7.2 0.9 -9.9 -0.2z"/>
  <path d="M998.3 255.9 c2.8 -1.7 2 -2.6 -3 -3.2 -3.9 -0.4 -5.4 -1.2 -8.5 -4.6 -2.1 -2.2 -3.8 -5 -3.8 -6.2 0 -2.3 -0.9 -2.1 -1.4 0.3 -0.5 2.5 -1.8 4.8 -2.7 4.8 -1.5 0 -1 -3.9 1.1 -8 1.1 -2.2 1.7 -4 1.4 -4 -0.4 0 0.2 -0.8 1.2 -1.7 1 -1 2.1 -2.7 2.2 -3.7 0.5 -2.6 7.1 -11.3 25.3 -33.1 7.3 -8.7 10.5 -12.5 13.2 -15.4 1.8 -1.9 3.2 -3.7 3.2 -4.1 0 -0.5 8.4 -11 16.1 -20 1.2 -1.4 4.1 -4.7 6.4 -7.5 9.8 -11.5 20.5 -22.5 21.9 -22.5 0.8 0 1.1 -0.3 0.8 -0.7 -0.4 -0.4 5.5 -7 13.1 -14.7 7.6 -7.8 15.8 -16.2 18.3 -18.8 2.4 -2.6 4.9 -4.8 5.4 -4.8 0.6 0 2.6 -1.4 4.5 -3 2.8 -2.4 3.6 -2.7 3.8 -1.5 0.2 0.9 -0.1 2.2 -0.7 2.9 -0.9 1.1 0 2.1 3.9 4.6 2.8 1.8 6.7 5.3 8.8 7.9 4.8 6 5.5 6.4 7 4.4 1.1 -1.5 1.2 -1.5 1.2 0.5 0 1.3 -1 2.7 -2.8 3.6 -1.5 0.8 -4.1 3.4 -5.9 5.8 -1.7 2.3 -9.1 10.4 -16.3 17.8 -7.3 7.4 -17.6 18 -23 23.5 -9.5 9.8 -20.5 22.2 -26.5 30 -1.6 2.2 -7.6 9.4 -13.3 16.2 -5.6 6.8 -10.1 12.3 -9.9 12.3 0.3 0 -1.2 1.7 -3.2 3.8 -2 2.1 -6.7 7.8 -10.6 12.6 -3.8 4.8 -9.1 11.3 -11.7 14.4 -2.7 3.1 -4.6 6.2 -4.4 6.8 0.6 1.5 -7.3 6.4 -10.4 6.4 -2.2 -0.1 -2.3 -0.2 -0.7 -1.1z"/>
  <path d="M247.2 176.1 c-0.8 -0.4 -1.3 -1.2 -1.3 -1.7 0.1 -0.5 -1.5 -1.2 -3.4 -1.7 -3.1 -0.6 -24 -10.4 -27 -12.7 -0.5 -0.4 -9.5 -5.1 -19.9 -10.5 -16.9 -8.7 -32.6 -15.9 -47 -21.7 -2.8 -1.1 -11.8 -4.9 -20 -8.5 -27.1 -11.8 -46.1 -19.5 -48.1 -19.7 -2 -0.1 -3.2 -1.1 -10.7 -8.4 -4.1 -4 -5.4 -8.2 -1.9 -6 1.1 0.7 1.8 1.5 1.6 1.8 -0.2 0.3 0.5 1.1 1.6 1.8 1.8 1.1 1.9 0.9 1.9 -4.1 0 -4.4 0.5 -5.9 3 -8.9 1.8 -2.1 4.2 -3.8 5.8 -4.1 1.6 -0.2 0.8 -0.5 -2.1 -0.6 -3.1 0 -4.6 -0.5 -4.2 -1.2 0.8 -1.2 15.5 -1 15.5 0.2 0 0.5 0.8 0.9 1.9 0.9 2 0 22.7 8.2 39.2 15.5 5.7 2.6 13.8 6 17.9 7.7 4.1 1.6 12.1 5 17.6 7.4 5.6 2.4 10.4 4.4 10.8 4.4 0.9 0 38.7 18.8 40.1 20 0.5 0.4 9.8 5.2 20.5 10.5 10.7 5.4 20.4 10.8 21.6 12 2.1 2.2 2.1 2.3 0.3 3.9 -1.1 0.9 -1.9 2.5 -1.9 3.6 0 2.5 -3.3 9.2 -6.6 13.7 -1.3 1.7 -2.4 4.1 -2.4 5.2 0 2.3 -0.7 2.6 -2.8 1.2z"/>
  <path d="M260.5 159.1 c-0.4 -0.8 -0.1 -1.9 0.8 -2.8 1.9 -2 3 -0.1 1.3 2.2 -1 1.4 -1.5 1.5 -2.1 0.6z"/>
 </g>
 <g fill="#2f1104">
  <path d="M368.6 761.8 c-5.5 -1.9 -6 -2 -9.3 -0.4 -3.9 1.8 -11.8 2.1 -12.9 0.5 -0.4 -0.7 -0.6 -4.2 -0.5 -8 0.2 -5.8 -0.2 -7.6 -2.9 -12.8 -2.7 -5.5 -3.2 -7.7 -4.4 -21.9 -1.3 -15.8 -1.3 -30.5 0.2 -50.6 0.6 -8.7 0.5 -10.9 -0.6 -11.4 -2.1 -0.8 -12.9 2.9 -18.1 6.1 -5.3 3.4 -17.5 10.1 -17.9 9.8 -0.6 -0.4 -10 5 -12.2 7.1 -1.4 1.3 -3.9 3.2 -5.6 4.3 -1.7 1.1 -6 4.2 -9.5 6.8 -5.6 4.3 -6.8 4.8 -10.4 4.4 -2.5 -0.2 -5 0.2 -6.8 1.2 -3.4 1.9 -4.9 1.1 -8.3 -4.6 l-2.5 -4.2 2.6 -2.3 c2.2 -1.9 2.5 -2.9 2 -5.5 -0.5 -2.9 -0.1 -3.5 5.2 -7.7 3.2 -2.6 7.4 -5.9 9.3 -7.4 9.5 -7.6 19.3 -13.4 40.9 -24.2 13 -6.5 25.2 -12.1 27.1 -12.4 6.5 -1.1 11.5 -1.7 21.3 -2.3 5.3 -0.3 9.7 -1 9.7 -1.4 0 -0.5 1.4 -0.9 3 -0.9 2.5 0 3.5 0.8 5.8 4.5 1.6 2.7 3.4 4.5 4.5 4.5 1.6 0 1.8 -0.5 1.2 -3.9 -0.6 -3.4 -0.3 -4.1 1.5 -5.1 1.3 -0.7 3.7 -0.9 5.9 -0.5 2 0.3 5.7 0.9 8.4 1.1 5.7 0.7 6.7 3.4 1.2 3.4 l-3.5 0 0 4.9 c0 7.4 -2.9 10.3 -10.6 10.9 -5.6 0.4 -6.3 0.2 -10.4 -3 -4.2 -3.2 -6.2 -5.9 -7.4 -10 -0.7 -2.3 -6.8 -2.4 -22.1 -0.3 -11 1.4 -11.1 1.5 -33.5 12.8 -12.4 6.2 -26.5 14.1 -31.5 17.5 -11.1 7.6 -21.7 15.8 -22.6 17.5 -1.6 2.8 6.6 14.7 10.2 14.7 3 0 6.6 -2.1 7.7 -4.5 0.6 -1.2 3.2 -3.3 5.9 -4.5 2.6 -1.3 6.9 -4 9.5 -6.2 4.4 -3.6 13.5 -8.8 15.5 -8.8 0.5 0 4.2 -2.1 8.3 -4.6 10.1 -6.2 17.8 -9.3 25 -10.1 l6.1 -0.6 -0.5 2.9 c-0.7 4.5 -2.1 29.9 -2.1 38.9 0 11.2 1.4 31.1 2.6 36.5 1.3 5.6 6.4 14.7 9.1 16.1 1.5 0.8 3.6 0.8 8 -0.1 4.6 -1 8 -1 16.1 -0.1 10.9 1.3 17.4 0.9 23.4 -1.3 2.1 -0.8 8.5 -1.7 14.3 -2 5.7 -0.4 10.8 -1 11.3 -1.5 1.1 -1.1 1.3 -8.7 0.4 -17.6 -0.3 -3.8 -0.9 -11 -1.2 -15.8 -0.3 -4.9 -1.2 -10.4 -2 -12.3 -0.8 -1.9 -1.9 -9.2 -2.6 -16.2 -0.6 -7 -1.7 -16 -2.4 -20 l-1.2 -7.4 2.4 -0.9 c8.5 -3.2 20.2 1.6 33.1 13.5 2.4 2.2 6.9 5.8 10 8 3.1 2.1 7.6 5.4 10 7.2 2.4 1.8 7.6 5 11.7 7.1 7.1 3.6 7.6 3.7 10.2 2.3 7.8 -4.4 7.3 -18 -0.9 -24 -3.3 -2.4 -18.2 -10 -19.7 -10 -0.6 0 -2.8 -1.5 -4.8 -3.3 -5 -4.5 -22.3 -16.2 -28.6 -19.4 -4.6 -2.3 -11 -4.3 -18.4 -5.8 -1.5 -0.3 -6.4 -0.8 -10.8 -1 -4.4 -0.2 -8.2 -0.4 -8.4 -0.5 -0.2 0 0.2 -0.7 0.9 -1.5 1.6 -1.9 5.8 -1.9 18.4 0.1 12.7 2 20.2 5.5 36.1 16.8 6.6 4.7 17.2 11.2 23.7 14.6 6.4 3.3 12.8 7 14.2 8.1 3.3 2.6 6.2 8.2 6.9 13.2 0.4 3.4 2.8 6.6 5 6.7 1.5 0 0.6 4.7 -1.3 6.7 -1.6 1.7 -2.5 2 -4.8 1.4 -1.9 -0.6 -3.7 -0.4 -5.3 0.5 -1.3 0.7 -3.4 1.3 -4.7 1.4 -3.5 0 -17.1 -7.2 -22.1 -11.8 -0.7 -0.7 -2.6 -2.1 -4 -3 -4.5 -2.8 -14.4 -10.5 -18.6 -14.3 -7.2 -6.7 -9.2 -7.9 -16.3 -9.5 -8.7 -2.1 -10.6 -1.6 -9.8 2.9 0.3 1.7 1.1 8.6 1.6 15.2 0.6 6.6 1.7 14 2.4 16.5 2.5 7.9 3.6 14.9 3.6 23.2 0 4.5 0.5 12.2 1.1 17 0.9 6.5 0.9 9.9 0.1 12.6 -0.6 2 -1.4 5.4 -1.7 7.4 -0.8 4.9 -3.3 6.2 -15.5 7.7 -8.7 1.1 -13.4 1.9 -23 3.7 -8.2 1.5 -14.5 1.3 -20.4 -0.8z m25.4 -3.1 c5.2 -0.9 11.3 -1.8 13.5 -2.1 15.5 -2 17.8 -3 17.3 -7.1 -0.3 -1.9 -0.9 -2 -9.3 -1.7 -4.9 0.1 -11.4 1 -14.5 1.9 -4.1 1.3 -8.4 1.6 -16.5 1.4 -10 -0.3 -13.9 -0.3 -30.2 0.1 l-5.3 0.1 0 4.5 0 4.5 4.5 -0.6 c2.4 -0.4 5.3 -1.2 6.4 -1.9 1.5 -0.9 3.2 -0.8 8.8 0.9 7.5 2.3 11 2.3 25.3 0z m-137.5 -69.1 c-1.8 -2.6 -4.5 -3.2 -5.2 -1 -0.2 0.6 0.6 2.3 1.8 3.8 1.9 2.4 2.3 2.6 3.6 1.3 1.3 -1.3 1.3 -1.8 -0.2 -4.1z m248 -2.6 c-0.9 -1.5 -3.2 -1.2 -3.9 0.5 -0.7 2 2.6 3.8 3.7 1.9 0.4 -0.8 0.5 -1.9 0.2 -2.4z m-116.5 -48 c1.4 -1.4 2 -3.3 2 -6.4 0 -4.9 -1.7 -6.9 -5.2 -6.4 -1.8 0.2 -2.2 0.9 -2 2.8 0.6 5.1 -0.6 7 -4.2 7 -3.5 0 -5.4 -1.6 -7.4 -6.3 -1.4 -3.3 -3.8 -3.1 -3.4 0.3 0.3 3 4.8 8.9 7.6 10 4 1.7 10.5 1.1 12.6 -1z"/>
  <path d="M848.5 762.5 c-2.2 -0.8 -4.1 -1.5 -4.3 -1.5 -0.2 0 -0.2 -1 0 -2.2 0.3 -2.1 0.7 -2.3 6.5 -2 5.7 0.4 6.2 0.2 6.9 -2 0.9 -2.8 0.7 -5.5 -0.7 -8.4 -0.8 -1.6 -0.7 -2.9 0.5 -5.3 2.7 -5.2 5.4 -3.7 7 3.9 0.6 2.9 5.1 8 7 8 0.8 0 2.4 -1.6 3.5 -3.6 3.8 -6.3 8.1 -2.2 4.7 4.4 -0.8 1.6 -3.1 3.7 -5 4.6 -3 1.4 -3.9 1.5 -6.8 0.3 -3.2 -1.3 -3.4 -1.2 -6.4 2 -3.5 3.7 -6.4 4.1 -12.9 1.8z"/>
  <path d="M955.4 741 c0.3 -1.8 0.6 -6.8 0.6 -11.1 0 -6.2 0.3 -7.9 1.4 -7.9 1 0 1.6 1.8 2.1 6.3 0.9 8.2 -0.4 15.1 -2.9 15.5 -1.6 0.4 -1.8 0 -1.2 -2.8z"/>
  <path d="M790.7 734.5 c-0.4 -0.9 1.3 -3.1 4.6 -6 6.9 -6.2 9.3 -7.3 11.3 -5.4 2.1 2.2 1.1 3.9 -5.5 8.7 -6.1 4.4 -9.5 5.3 -10.4 2.7z"/>
  <path d="M925.5 726 c-2.7 -1 -5.7 -1.9 -6.6 -1.9 -0.9 -0.1 -2.2 -0.8 -2.9 -1.7 -1.1 -1.2 -1 -1.8 0.3 -3.1 1.5 -1.5 2.3 -1.5 9.8 0.6 9.1 2.4 10.9 3.4 10.9 6.2 0 2.4 -4.5 2.4 -11.5 -0.1z"/>
  <path d="M787.4 722.5 c-0.9 -2.3 0.3 -3.4 7.2 -6.5 6.6 -3 9.4 -3 9.4 -0.1 0 3 -2.3 4.6 -9.9 7 -4.5 1.5 -6.1 1.4 -6.7 -0.4z"/>
  <path d="M934 716 c-1.4 -0.4 -4.3 -0.9 -6.5 -0.9 -5.3 -0.2 -7.4 -1.5 -5.9 -3.8 1.5 -2.5 9.6 -2.9 15.1 -0.8 4.7 1.8 5.1 2.6 2.7 4.9 -1.7 1.8 -1.8 1.8 -5.4 0.6z"/>
  <path d="M797.9 707.6 c-0.5 -0.4 -8.2 -1.5 -11.6 -1.5 -1.7 -0.1 -2.3 -0.7 -2.3 -2.5 0 -1.3 0.7 -2.6 1.5 -3 1.5 -0.5 7.7 -0.1 14.3 1 9.9 1.6 11.2 6.4 1.8 6.4 -1.8 0 -3.5 -0.2 -3.7 -0.4z"/>
  <path d="M923 701.1 c-0.9 -1.7 -0.2 -2.6 4.9 -6.5 6 -4.7 9.5 -5.7 10.4 -3.2 0.7 1.7 -1.9 4.5 -7.7 8.5 -5.2 3.6 -6.2 3.8 -7.6 1.2z"/>
  <path d="M795.8 680.9 c-4 -1.5 -6.2 -7.1 -6.2 -15.9 -0.1 -9.7 0.8 -12.6 4.5 -14.9 2.5 -1.5 3.7 -1.7 6 -0.9 4.5 1.6 6.6 6.6 7.5 18.3 0.5 6.2 0.3 7.4 -1.8 10.5 -2.5 3.8 -5.4 4.6 -10 2.9z"/>
  <path d="M905.7 678.9 c-3.4 -0.9 -5.1 -2.8 -7.7 -8.5 -2.3 -5.1 -4.5 -18.4 -3.6 -21.9 1.2 -4.6 8.7 -5.9 14.2 -2.6 6.3 3.8 9.9 23.7 5.3 29.5 -2.8 3.6 -4.9 4.5 -8.2 3.5z"/>
  <path d="M948.6 671.8 c-0.3 -0.7 -0.7 -4.4 -1 -8.3 -0.4 -3.8 -0.9 -8.5 -1.2 -10.2 -0.5 -2.6 -0.3 -3.3 0.9 -3.3 1.7 0 3.1 5.5 4.2 16.8 0.6 5.3 0.5 6.2 -0.9 6.2 -0.9 0 -1.8 -0.6 -2 -1.2z"/>
  <path d="M90.8 643.5 c-8.9 -3.3 -24.4 -18.2 -22.3 -21.5 2 -3.3 8.1 -9 9.6 -9 1.1 0 3.5 2.3 5.7 5.3 4.6 6.1 9.6 10.7 15.2 13.9 2.2 1.3 4 2.8 4 3.3 0 0.6 -1.6 2.5 -3.5 4.4 -1.9 1.8 -3.5 3.7 -3.5 4.2 0 1.1 -0.6 1.1 -5.2 -0.6z m6.2 -5 c1.3 -1.4 2.2 -2.6 1.9 -2.8 -0.2 -0.2 -2.4 -1.8 -4.9 -3.4 -4.9 -3.4 -9.4 -7.9 -12.9 -13 -1.2 -1.8 -2.6 -3.3 -3.1 -3.3 -0.5 0 -2.3 1.8 -4.1 4.1 l-3.2 4.1 7.1 6.8 c7 6.6 12.1 9.9 15.3 10 0.8 0 2.6 -1.1 3.9 -2.5z"/>
  <path d="M91 636.5 c-0.7 -0.9 -1 -1.8 -0.7 -2.1 0.9 -0.9 4.8 1.6 4.2 2.7 -0.9 1.3 -2.1 1.1 -3.5 -0.6z"/>
  <path d="M77.6 626.9 c-2.6 -3 -3.4 -5.9 -1.8 -5.9 0.9 0 7.2 7.4 7.2 8.4 0 1.7 -3.2 0.2 -5.4 -2.5z"/>
  <path d="M943.1 641.8 c-0.5 -1.3 -1.1 -5.1 -1.4 -8.6 -0.4 -3.5 -0.9 -6.7 -1.2 -7.2 -0.9 -1.5 0.4 -3 1.9 -2.4 1.8 0.7 2.4 3.2 3.2 12.8 0.4 5.4 0.3 7.6 -0.5 7.6 -0.6 0 -1.5 -1 -2 -2.2z"/>
  <path d="M806.5 626.4 c-13.4 -1.6 -14.5 -1.9 -14.5 -3.4 0 -1.4 5 -1.3 22.3 0.7 12.9 1.4 17.8 1.5 34.6 0.5 10.8 -0.6 20.7 -1.3 22.1 -1.6 1.4 -0.3 4.1 -0.9 6 -1.2 6 -1.1 19.2 -4.6 32 -8.6 18 -5.5 20.6 -7.7 14.9 -12.7 -2.2 -2 -2.8 -3 -1.9 -3.6 2.9 -1.8 9.8 5.5 8.6 9.3 -0.9 2.6 -9.2 7.2 -17.1 9.3 -3.8 1.1 -7.7 2.2 -8.5 2.4 -7.4 2.3 -14.6 4.1 -26.5 6.6 -12.8 2.8 -16 3.1 -37 3.4 -16.2 0.3 -26.5 0 -35 -1.1z"/>
  <path d="M779.2 617.7 c-1.2 -0.7 -2.9 -2.2 -3.7 -3.4 -1.8 -2.6 -1.1 -3.2 6.8 -6.7 3.3 -1.5 5.9 -2.1 6.2 -1.6 1 1.6 -0.3 2.7 -5 4.6 -2.5 0.9 -4.5 2 -4.5 2.4 0 0.3 1.6 1.4 3.6 2.3 1.9 1 3.2 2.2 2.9 2.7 -0.8 1.3 -3.5 1.2 -6.3 -0.3z"/>
  <path d="M111 602.6 c0 -0.8 5.7 -6.6 12.8 -13 7 -6.3 13.4 -12.4 14.2 -13.4 0.8 -1.1 4.8 -5.4 8.8 -9.7 5.4 -5.8 7.6 -7.5 8.4 -6.7 0.9 0.9 -4.5 6.8 -20.6 22.7 -11.9 11.8 -22.1 21.5 -22.6 21.5 -0.6 0 -1 -0.6 -1 -1.4z"/>
  <path d="M103 594 c0 -0.5 0.9 -1.4 2 -2 5 -2.7 22.1 -18 39.6 -35.4 22.8 -22.9 46 -48.8 61.4 -68.8 4.5 -5.9 6 -6.9 6 -4.4 0 1.9 -15.5 21.5 -27.9 35.1 -2.5 2.8 -8.2 9.1 -12.6 14 -11.2 12.7 -33.8 35.4 -45.4 45.8 -15.5 13.9 -23.1 19 -23.1 15.7z"/>
  <path d="M1128.8 587.3 c-0.7 -1 -2.7 -2.5 -4.3 -3.3 -1.7 -0.8 -3.8 -3.1 -4.7 -5.1 -2.4 -4.8 -6.6 -25.2 -7.7 -37.6 -0.7 -8.1 -1.5 -11.3 -3.7 -15.3 -2.4 -4.4 -6 -8 -6.8 -6.8 -0.1 0.2 -1.3 1.9 -2.6 3.8 -1.4 1.9 -4.7 6.2 -7.5 9.5 -2.8 3.3 -6.7 8.9 -8.7 12.5 -2 3.6 -6.8 10 -10.6 14.2 -3.8 4.2 -7.9 9.3 -9.2 11.2 -1.3 1.9 -3.8 4.2 -5.5 5.2 -1.6 1 -3.9 2.6 -4.9 3.6 -1.1 1 -2.9 1.8 -4.1 1.8 -2.1 0 -9 -4.1 -13 -7.7 -1.1 -1 -5.4 -4 -9.5 -6.7 -10 -6.6 -11.6 -8.1 -15.1 -14.3 -1.7 -2.9 -3.6 -5.3 -4.2 -5.3 -2.4 0 -8.7 -5.1 -8.7 -7 0 -1 1.6 -3.2 3.5 -4.8 2.4 -2 4.3 -4.8 5.7 -8.8 2.1 -5.8 3.7 -8.3 14.9 -22 5.1 -6.2 27.8 -28.4 30 -29.2 4.3 -1.6 -5 -7 -16.6 -9.7 -3.9 -0.8 -10.4 -2.6 -14.5 -4 -4.1 -1.3 -12.4 -2.9 -18.5 -3.6 -10.6 -1.1 -16.5 -2.9 -16.5 -4.9 0 -0.5 -1.6 -1.6 -3.6 -2.5 -3.5 -1.4 -3.6 -1.6 -2.9 -5.7 1 -5.7 1.3 -6.1 4.6 -5.4 2.1 0.4 2.9 0.1 3.4 -1.3 0.9 -3 2.9 -3.2 17.1 -1.6 14.5 1.7 22.8 3.7 40.6 9.5 6.4 2.2 13.5 4.4 15.7 5 3.6 0.9 19.7 12.4 23 16.3 0.7 1 2.1 1.7 3.1 1.7 3.2 0 4.4 2.6 3.2 7.2 -1.4 5.5 -0.2 6.7 3.2 3.3 2.5 -2.5 2.9 -2.6 4.9 -1.2 1.2 0.8 2.7 2.4 3.3 3.6 0.6 1.2 2.1 3.3 3.4 4.6 1.2 1.3 2 2.9 1.8 3.6 -0.3 0.8 -1.1 0.5 -2.6 -1.1 l-2.1 -2.3 -3.3 3.1 c-3.9 3.9 -7.9 4.2 -12.3 0.8 -3.8 -3 -5.7 -8.6 -4.6 -13.7 0.5 -2 1.1 -4.1 1.4 -4.6 1.1 -1.7 -14.2 -14.9 -20.4 -17.7 -4.3 -1.9 -29.3 -9.9 -37.8 -12.1 -7 -1.8 -25.4 -4.4 -31.2 -4.5 -4.3 0 -5.9 2.6 -5.9 9.5 0 3.8 0.4 4.6 2.8 5.9 1.5 0.7 4.1 1.1 5.8 0.9 1.7 -0.3 5.2 0.2 7.8 1.1 2.6 0.9 6.5 1.6 8.8 1.6 2.3 0 6.9 1.1 10.2 2.4 3.4 1.4 9.4 3.2 13.4 4 7.6 1.6 13.9 4.3 18.2 7.8 l2.5 2 -7.5 7 c-4.1 3.8 -9.7 8.8 -12.3 11.1 -7.7 6.7 -25 28.1 -26.9 33.5 -2.6 7 -2.4 10.7 0.9 12.9 1.5 1 7 6.2 12.3 11.5 5.2 5.3 11.1 10.4 13 11.2 1.9 0.8 5.5 3.2 8 5.3 9.3 8.1 9.9 8.4 12.4 6.8 1.3 -0.9 3.6 -3.4 5.3 -5.8 1.7 -2.3 5.9 -7.3 9.3 -11.2 3.5 -3.8 6.9 -8.5 7.7 -10.4 1.7 -4.1 4.2 -7.6 10.8 -15.6 4.6 -5.6 6 -7.5 9.8 -12.8 1.2 -1.7 1.5 -1.6 4.9 1.5 5.5 4.9 8.5 11.9 9.3 21.3 0.8 9.7 4 28.3 6.1 34.6 0.8 2.6 2.3 5.4 3.4 6.4 2.7 2.4 7.9 1.3 11.6 -2.6 2.5 -2.7 2.9 -3.7 2.8 -8.7 0 -3.8 -1.1 -8.4 -3.1 -13.7 -1.7 -4.4 -4.1 -13.2 -5.2 -19.5 -3.9 -20.2 -7.9 -29.2 -18 -39.9 -2.2 -2.4 -3.9 -4.6 -3.7 -4.9 2.1 -2 12.5 10 17.6 20.3 1.9 3.8 3.9 10.7 5.5 19 1.4 7.2 3.5 15.9 4.6 19.5 5.4 16.9 5.8 18.8 4.7 22.7 -0.6 2.1 -1.9 5 -3 6.5 -1.2 1.8 -1.7 3.6 -1.3 4.8 1.4 4.3 -4.9 6.9 -7.7 3.3z m4.9 -1.8 c0.7 -2 0 -2.7 -2 -1.9 -0.9 0.3 -1.3 1.2 -1 2 0.7 1.9 2.2 1.8 3 -0.1z m-82.7 -8.3 l2.2 -1.8 -3.8 -2.9 c-2.2 -1.6 -4.8 -3.8 -5.9 -4.8 -1.1 -1 -3.3 -2.6 -5 -3.4 -6 -3.1 -12.1 -8.3 -17.3 -14.6 -2.9 -3.6 -6.7 -7.2 -8.6 -8.1 -1.8 -0.9 -4.1 -2.7 -5 -4.1 l-1.7 -2.6 -2.9 2.3 c-1.6 1.3 -2.9 2.6 -2.9 3 -0.1 0.3 2.3 1.8 5.3 3.3 4.2 2 5.7 3.5 7.1 6.6 2.3 5 6.1 8.8 14.5 14.2 3.6 2.3 7.4 5 8.5 5.9 3 2.5 11.9 8.7 12.6 8.7 0.4 0.1 1.7 -0.7 2.9 -1.7z m46.4 -89.3 c3.1 -3.6 3.1 -4.1 0.8 -6.2 -1.7 -1.6 -2 -1.5 -4.2 0.8 -1.3 1.4 -2.9 2.5 -3.6 2.5 -2.3 0 -3.6 -4 -2.9 -8.6 0.7 -4.9 -0.9 -6.1 -2.5 -1.8 -2 5.2 -1.2 9.4 2.4 13 4.2 4.2 6.7 4.3 10 0.3z m-111.4 -43 c0 -2.4 -0.4 -3 -1.7 -2.7 -1.1 0.2 -1.9 1.4 -2.1 3.1 -0.3 2.2 0.1 2.7 1.7 2.7 1.7 0 2.1 -0.6 2.1 -3.1z"/>
  <path d="M168 550.9 c0 -2.7 35.3 -43.9 37.6 -43.9 2 0 1.7 1.4 -0.7 3.6 -2.9 2.5 -17.5 19.6 -27.3 31.7 -7.4 9.1 -9.6 11.1 -9.6 8.6z"/>
  <path d="M193 536.9 c0 -1.7 7.3 -10.8 8.8 -10.9 1.8 0 1.6 0.6 -2.9 6.5 -4 5.3 -5.9 6.7 -5.9 4.4z"/>
  <path d="M251 475.5 c0 -0.9 1.6 -5.1 3.6 -9.3 6.5 -13.7 7.8 -19.2 4.9 -19.2 -0.9 0 -2.8 -1.2 -4.2 -2.6 l-2.5 -2.6 -5.7 2.2 c-3.2 1.1 -9.1 4 -13.3 6.4 -4.5 2.6 -8.1 4 -8.8 3.6 -1.4 -0.8 2.4 -3.6 11.6 -8.4 15.4 -8.1 25.9 -11.1 28.3 -8.2 2.7 3.2 -1.1 17.2 -8.5 32 -3.7 7.4 -5.4 9.3 -5.4 6.1z"/>
  <path d="M942 393.4 c-8.3 -1.8 -9.9 -3.3 -7.4 -6.7 2.4 -3.2 13.9 -11 15.4 -10.5 0.7 0.2 -1.8 2.3 -5.4 4.6 -3.6 2.3 -6.6 4.5 -6.6 4.8 0 0.3 0.7 1.8 1.5 3.3 1.1 2.3 2.3 2.9 6.1 3.5 2.6 0.3 6 0.6 7.5 0.6 1.6 0 2.9 0.5 2.9 1 0 1.4 -6.2 1.1 -14 -0.6z"/>
  <path d="M974 383.5 c10.5 -4 41.7 -11.8 58.1 -14.5 12.8 -2.1 24.2 -2.6 20.4 -1 -1.1 0.5 -3.7 0.9 -5.7 0.9 -9.2 0.2 -38.9 6.3 -59.6 12.2 -13.6 3.8 -19.9 5 -13.2 2.4z"/>
  <path d="M984.5 374.4 c2.2 -0.8 5.1 -1.7 6.5 -1.9 1.4 -0.3 6.1 -1.6 10.5 -3 8.8 -2.7 10.4 -3 9 -1.6 -1.3 1.3 -25.1 8.1 -27.8 8 -1.5 0 -0.9 -0.5 1.8 -1.5z"/>
  <path d="M988.6 368 c0.5 -0.5 2.5 -1.2 4.4 -1.5 l3.5 -0.5 -3 1.4 c-3.5 1.8 -6.4 2.1 -4.9 0.6z"/>
  <path d="M1020.6 367.2 c1.6 -1.4 25.2 -6.2 30.7 -6.2 1 0 1.6 0.4 1.3 0.9 -0.3 0.4 -4.6 1.4 -9.5 2 -5 0.7 -11.4 1.9 -14.3 2.7 -6 1.6 -9.7 1.8 -8.2 0.6z"/>
  <path d="M1070.6 366.8 c-0.3 -0.7 -0.7 -3.2 -1 -5.5 -0.4 -2.4 -1.4 -5.8 -2.3 -7.8 -1.9 -4 -1.7 -4.4 2.9 -5.1 3.2 -0.6 3.6 -0.3 5.1 2.8 2 4.3 3.7 11.6 3 13.4 -0.2 0.7 -1.8 1.7 -3.5 2.3 -3.8 1.4 -3.8 1.4 -4.2 -0.1z m4.3 -1.5 c2.1 -0.5 2.2 -1 1.7 -4.4 -1 -6.4 -3.6 -10.9 -6.3 -10.9 -2.7 0 -2.7 -0.2 -0.8 4.3 0.8 2 1.5 5.5 1.5 7.7 0 4.2 0.1 4.3 3.9 3.3z"/>
  <path d="M1073.7 361.6 c-0.5 -1.5 -0.6 -3.1 -0.3 -3.4 0.8 -0.8 1.8 2.5 1.4 4.5 -0.3 1.3 -0.6 1 -1.1 -1.1z"/>
  <path d="M82.7 340.5 c-6.5 -3.6 -12.2 -6.5 -12.6 -6.5 -1.1 0 -9.1 -8 -9.1 -9.1 0 -0.5 -2.5 -2 -5.5 -3.4 -3 -1.5 -5.5 -3.2 -5.5 -3.9 0 -0.7 1.3 -2.7 2.9 -4.5 1.8 -2 3.4 -5.3 4 -8.2 1.6 -7.5 11 -21.5 26.6 -39.8 3 -3.6 5.5 -6.8 5.5 -7.2 0 -1.2 -7.3 -3.6 -13 -4.3 -3 -0.4 -8.7 -1.4 -12.6 -2.2 -3.9 -0.9 -8.2 -1.4 -9.5 -1.3 -1.3 0.1 -6 0.1 -10.5 0.1 -6.5 -0.2 -8.4 -0.6 -10.2 -2.2 -1.2 -1.1 -3 -2 -4.1 -2 -2.3 0 -3.4 -2.8 -2.5 -6.4 0.6 -2.4 1.5 -3.1 3.7 -2.7 0.5 0.1 1.8 -1 2.9 -2.4 1.9 -2.5 2.4 -2.6 11.8 -2.4 10.9 0.2 21.3 1.5 40.1 5.3 10.7 2.1 13.7 3.2 19.5 6.7 3.8 2.4 7.8 5 8.9 6 1.1 0.9 2.9 1.9 4 2.1 1.5 0.2 2 1.2 2.2 3.8 0.3 6.6 0.3 6.6 2.4 3.8 1.1 -1.6 2.5 -2.8 3 -2.8 1.4 0 9.9 8.7 9.2 9.4 -0.3 0.3 -1.2 0.1 -2 -0.6 -1.1 -0.9 -2.1 -0.4 -4.6 2 -3.7 3.6 -4.6 3.8 -8.7 1.7 -4.2 -2.2 -6.4 -6.8 -5.6 -12.1 0.5 -3.9 0.3 -4.4 -2.7 -6.6 -10 -7.5 -13.6 -8.9 -31.4 -12.4 -18.6 -3.6 -41.5 -5.3 -44 -3.2 -1.7 1.4 -1.7 10.3 0 11.5 0.6 0.5 6.2 1 12.2 1.1 6.1 0.1 13.9 0.9 17.5 1.7 3.6 0.8 9.7 1.9 13.6 2.5 6.6 1 13.4 4 13.4 5.7 0 0.8 -4.1 5.9 -12.7 15.6 -4.2 4.8 -15.3 20.4 -18.7 26.5 -0.4 0.6 -1.1 3.6 -1.6 6.5 -0.9 5.9 -0.3 7.1 4.4 9.2 1.7 0.7 5.6 3.6 8.6 6.4 3 2.9 8.4 6.7 12 8.5 3.6 1.8 8.7 4.7 11.4 6.4 2.7 1.7 5.3 2.9 5.7 2.6 1.7 -1 14.4 -21 18.4 -28.9 3.2 -6.2 11.5 -20.5 13 -22.3 0.1 -0.1 1.3 0.2 2.7 0.8 3.6 1.7 8.6 9.8 9.9 16 2 9.8 7 26.4 9.2 30.5 2.9 5.3 6.5 5.9 10.7 1.6 4.3 -4.2 4.1 -8.8 -1 -18.9 -2.2 -4.4 -4 -8.4 -4 -9 0 -2.3 -6.3 -20 -8.8 -24.5 -1.4 -2.7 -5.4 -7.5 -8.9 -10.7 -3.5 -3.3 -6.3 -6.2 -6.3 -6.5 0 -2.9 11.8 7.6 16.2 14.5 1.6 2.4 4.6 9.9 6.8 16.5 2.1 6.6 5.5 15.5 7.4 19.7 3.9 8.2 4.5 13.6 2.1 17.8 -0.7 1.4 -1.1 3.7 -0.8 5.2 0.4 2 0 2.9 -1.7 3.8 -1.8 1 -2.5 0.8 -4.4 -0.9 -1.2 -1.2 -2.9 -2.1 -3.8 -2.1 -3.2 0 -5.9 -5.1 -10.3 -19 -1.3 -4.1 -3 -10.7 -3.8 -14.5 -1.5 -7.3 -3.2 -11.3 -6.6 -15.2 -2.6 -3.1 -3.7 -2.9 -5.7 0.8 -0.8 1.7 -3.3 5.6 -5.5 8.8 -2.2 3.1 -4.4 7.2 -4.9 9.3 -0.6 2 -2.6 5.8 -4.5 8.5 -1.9 2.6 -5.3 7.8 -7.5 11.4 -3.6 5.9 -11.9 14.9 -13.8 14.9 -0.4 0 -6 -2.9 -12.5 -6.5z m15.3 1.5 c0 -1.1 -9.8 -7.3 -16 -10.2 -3 -1.3 -8.2 -5 -11.5 -8.1 -3.3 -3.2 -6.9 -6 -8 -6.3 -1.1 -0.4 -3 -1.6 -4.3 -2.8 -2.3 -2.1 -2.4 -2.1 -3.8 -0.2 -2.1 2.9 -1.8 3.5 2.9 5.5 2.4 1 5.1 3.2 6.1 4.7 2.6 4 5 5.9 13.6 10.4 4.1 2.2 9.9 5.4 12.9 7 4.1 2.3 5.7 2.7 6.7 1.9 0.8 -0.6 1.4 -1.5 1.4 -1.9z m68 0 c0 -0.5 -0.7 -1 -1.5 -1 -0.8 0 -1.5 0.5 -1.5 1 0 0.6 0.7 1 1.5 1 0.8 0 1.5 -0.4 1.5 -1z m-40.1 -75.4 c1.3 -1.3 2.1 -3.2 1.9 -4.2 -0.5 -2.7 -3.5 -2.9 -4.3 -0.5 -0.8 2.6 -4.1 2.7 -5.5 0.2 -0.5 -1.1 -0.7 -3.3 -0.4 -5 0.7 -3.2 -0.9 -4.4 -2 -1.5 -1.6 4.2 0.4 9.7 4.5 12 3.2 1.8 3.2 1.8 5.8 -1z m-93.9 -25.1 c0 -1.6 -0.6 -2.5 -1.5 -2.5 -0.9 0 -1.5 0.9 -1.5 2.5 0 1.6 0.6 2.5 1.5 2.5 0.9 0 1.5 -0.9 1.5 -2.5z"/>
  <path d="M311 342.3 c0 -0.7 1.3 -2.7 3 -4.5 1.6 -1.8 3 -2.7 3 -2.1 0 0.7 -1.3 2.7 -3 4.5 -1.6 1.8 -3 2.7 -3 2.1z"/>
  <path d="M305.2 327.8 c-1.1 -1.8 -1.8 -3.6 -1.5 -4.2 0.8 -1.1 5.3 4 5.3 6 0 2.4 -1.7 1.6 -3.8 -1.8z"/>
  <path d="M309.3 325.5 c-3 -3.2 -1 -4.5 2.3 -1.4 1.3 1.2 2.4 2.6 2.4 3.1 0 1.6 -2.5 0.7 -4.7 -1.7z"/>
  <path d="M277.6 322.5 c-0.3 -0.8 -1.6 -1.5 -3 -1.5 -1.4 0 -3 -1 -4 -2.4 -1.7 -2.7 -0.6 -4.5 1.4 -2.1 1.8 2.2 3.5 1.8 5.5 -1.1 2.1 -3.3 3 -2.4 2.6 2.7 -0.2 3.7 -0.1 4 1.8 3.4 1.5 -0.5 2.1 -0.2 2.1 0.9 0 2.1 -5.6 2.2 -6.4 0.1z"/>
  <path d="M312 319.4 c0 -1.1 0.8 -1.4 3.2 -1.2 4.6 0.4 4.9 2.8 0.4 2.8 -2.6 0 -3.6 -0.4 -3.6 -1.6z"/>
  <path d="M328 317.6 c0 -1.3 4.3 -7.6 5.3 -7.6 0.4 0 0.7 0.4 0.7 0.8 0 1.1 -5.9 7.9 -6 6.8z"/>
  <path d="M313.8 308.2 c-4.3 -0.9 0 -13.3 4.8 -14 1.3 -0.2 2.5 0.6 3.3 2.2 1.2 2.2 1.1 3 -1.2 6.9 -2.8 4.7 -4 5.6 -6.9 4.9z"/>
  <path d="M1180.3 307.3 c-3 -0.3 -4.6 -1 -5.3 -2.4 -1.1 -2 0.3 -2.8 1.5 -0.9 1.1 1.8 2.6 1 3.6 -2 1.3 -3.5 2.9 -4 2.9 -0.7 0 2.9 1.5 5.3 2.4 3.8 1 -1.6 2.6 -1.4 2.6 0.3 0 1.1 -2.7 3.1 -3.3 2.4 -0.1 -0.1 -2.1 -0.3 -4.4 -0.5z"/>
  <path d="M335 306.3 c0 -1.6 3.3 -7.3 4.3 -7.3 1.2 0 0.8 0.9 -1.8 4.8 -1.4 2 -2.5 3.1 -2.5 2.5z"/>
  <path d="M1206.7 303.9 c-1.5 -1.1 -2.5 -2.5 -2.1 -3 0.6 -1 6.4 2.7 6.4 4.2 0 1.4 -1.2 1 -4.3 -1.2z"/>
  <path d="M1208.9 300 c-2.4 -1.9 -2.4 -1.9 -0.2 -2 1.9 0 5.3 2.3 5.3 3.6 0 1.1 -3 0.2 -5.1 -1.6z"/>
  <path d="M1210 295 c0 -1.2 4.8 -2.5 5.8 -1.6 0.8 0.9 -1.8 2.6 -4 2.6 -1 0 -1.8 -0.4 -1.8 -1z"/>
  <path d="M260.6 294.3 c-1.5 -1.6 -0.3 -2.4 3.2 -2.1 2 0.2 3.6 0.7 3.5 1.3 -0.3 1.1 -5.7 1.8 -6.7 0.8z"/>
  <path d="M265.1 290.1 c-2.4 -0.7 -4.2 -3.1 -2.2 -3.1 2 0 6.1 2 6.1 3 0 1.1 -0.4 1.1 -3.9 0.1z"/>
  <path d="M336 290 c-7.1 -2.2 -19.9 -9.4 -28 -15.6 -7.2 -5.5 -17.5 -16.2 -16.5 -17.2 0.4 -0.4 3.3 2.1 6.4 5.4 7.9 8.7 17.4 15.7 29.3 21.4 11.2 5.5 12.8 5.9 12.8 3 0 -1.1 0.5 -2 1 -2 1.6 0 1.1 4.7 -0.6 5.4 -0.9 0.3 -1.6 0.6 -1.7 0.5 -0.1 0 -1.3 -0.4 -2.7 -0.9z"/>
  <path d="M1160 287.5 c0 -1.1 1.1 -1.5 3.7 -1.5 4.1 0 3.5 1.3 -0.9 2.4 -2.1 0.5 -2.8 0.3 -2.8 -0.9z"/>
  <path d="M1223.1 287.5 c0 -1.1 0.4 -2.9 0.9 -4 0.8 -1.8 0.9 -1.8 0.9 0.5 0 1.4 -0.4 3.2 -0.9 4 -0.8 1.2 -1 1.2 -0.9 -0.5z"/>
  <path d="M268.3 285 c-2.3 -2.8 -3 -5 -1.6 -5 0.9 0 6.3 6.2 6.3 7.3 0 1.6 -2.6 0.4 -4.7 -2.3z"/>
  <path d="M1207.1 285.1 c-2.4 -1.5 -1.6 -13.1 1 -13.1 2.7 0 4.9 2.2 4.9 5 0 5.8 -2.9 9.9 -5.9 8.1z"/>
  <path d="M1160 283 c0 -0.5 1.6 -1 3.5 -1 1.9 0 3.5 0.5 3.5 1 0 0.6 -1.6 1 -3.5 1 -1.9 0 -3.5 -0.4 -3.5 -1z"/>
  <path d="M1165.2 279.3 c-1.7 -0.8 -3.2 -2.2 -3.2 -3 0 -1.1 0.5 -1.1 2.9 0.2 5.4 2.7 5.6 5.4 0.3 2.8z"/>
  <path d="M277.3 278.3 c-2.4 -0.9 -1.4 -5.9 1.7 -9.2 3.3 -3.4 5.1 -3.9 7 -1.6 1.6 2 -0.3 6.8 -3.8 9.5 -2.6 2.1 -2.9 2.2 -4.9 1.3z"/>
  <path d="M1225.4 275.5 c0.4 -1.6 1.2 -3.4 1.7 -4 0.7 -0.7 0.8 0 0.3 2 -0.3 1.7 -1.1 3.5 -1.7 4 -0.6 0.7 -0.7 0 -0.3 -2z"/>
  <path d="M1168.5 270 c-1.2 -2 0.6 -9 2.7 -10.1 4.5 -2.4 6.1 1.2 3.4 7.6 -1.5 3.5 -4.7 4.8 -6.1 2.5z"/>
  <path d="M974.3 267.3 c-2 -0.7 -1.6 -8.5 0.8 -15.5 3 -9 8 -19.8 9.2 -19.8 1.2 0 0.9 0.9 -4.1 14 l-4.1 10.5 2.7 1.4 c1.5 0.7 3.5 2 4.5 2.9 1.6 1.4 2.2 1.3 7 -0.9 2.8 -1.3 7.9 -4 11.1 -6.1 6 -3.7 9.4 -4.1 6 -0.8 -2.6 2.5 -18.6 10.8 -25.2 13.1 -5.8 2 -6 2 -7.9 1.2z"/>
  <path d="M1212.5 263.8 c-7.2 -0.8 -15.3 -2.6 -17 -3.8 -0.5 -0.4 -3.6 -1.7 -6.7 -2.8 -6.1 -2.3 -9.4 -4 -11.5 -5.9 -2.9 -2.6 -0.9 -2.2 5.1 1.2 3.4 1.9 9 4.4 12.2 5.5 6.2 2.2 21.6 5 27.2 5 2.9 0 3.3 -0.2 2.7 -2.1 -0.5 -1.5 -0.4 -1.9 0.4 -1.5 0.6 0.4 1.1 1.5 1.1 2.5 0 2.4 -3.9 2.9 -13.5 1.9z"/>
  <path d="M288.6 251.4 c-0.3 -0.9 -0.6 -2 -0.6 -2.5 0 -1.4 3.4 -1.1 5.6 0.6 1.9 1.4 1.8 1.4 -0.3 1.5 -1.3 0 -2.3 0.5 -2.3 1 0 1.6 -1.7 1.2 -2.4 -0.6z"/>
  <path d="M1172.7 246.3 c-1.7 -1.6 -0.6 -3.3 2.1 -3.2 2.4 0.2 2.5 0.2 0.4 0.6 -1.5 0.3 -2.2 1 -1.8 1.9 0.6 1.5 0.3 1.8 -0.7 0.7z"/>
  <path d="M1019 224.3 c0 -1.9 17.2 -23.5 38.9 -48.8 16.5 -19.3 45.1 -47.4 52.9 -51.9 0.7 -0.4 1.2 -0.2 1.1 0.6 0 0.7 -2.7 3.3 -5.9 5.8 -5.7 4.3 -25.6 24 -37 36.5 -10.8 11.8 -31.8 37 -41.8 50.3 -5.5 7.2 -8.2 9.7 -8.2 7.5z"/>
  <path d="M1023 203.4 c0 -0.3 3.3 -4.5 7.3 -9.2 4 -4.8 11 -13.5 15.6 -19.4 4.5 -5.9 8.6 -11 9.2 -11.3 2.8 -1.8 -0.2 3.1 -9.5 15.3 -14.5 19.1 -22.6 27.9 -22.6 24.6z"/>
  <path d="M1026 186.4 c0 -1.2 7.2 -10.4 8.1 -10.4 1.6 0 1 1.6 -2.6 6.4 -3.2 4.1 -5.5 5.8 -5.5 4z"/>
  <path d="M252.3 178.4 c-6.1 -2.7 -6.5 -4.2 -2.6 -8.8 3 -3.5 7.3 -12.2 7.3 -14.8 0 -0.9 0.4 -2.8 0.9 -4.1 l1 -2.5 5 2.5 c4 2 5.1 3.1 5.1 5 0 5.4 -7.7 23.6 -10.4 24.6 -0.6 0.2 -3.5 -0.7 -6.3 -1.9z m9.6 -7.7 c1.9 -3.7 3.6 -8.9 3.9 -11.5 0.4 -4.4 0.2 -4.9 -2.4 -6 -3 -1.4 -4.4 -0.5 -4.4 3.1 0 2.2 -3.4 9.1 -6.6 13.4 -1.3 1.7 -2.4 3.6 -2.4 4.2 0 1.2 5.8 4.1 7.5 3.7 0.6 -0.1 2.5 -3.2 4.4 -6.9z"/>
  <path d="M255 175.1 c0 -2.2 3.4 -8.1 4.7 -8.1 1 0 0.8 1 -0.7 3.9 -2 4 -4 6.1 -4 4.2z"/>
  <path d="M261 158.3 c0 -2.3 1.5 -3.9 2.4 -2.5 0.3 0.5 -0.1 1.8 -0.9 2.8 -1.4 1.8 -1.4 1.8 -1.5 -0.3z"/>
  <path d="M496.7 169.8 c-0.8 -2.4 -1.8 -5.3 -2.1 -6.4 -0.4 -1.2 -3.4 -4.5 -6.6 -7.4 -4.1 -3.5 -7.3 -7.5 -10 -12.3 -2.1 -4 -3.8 -7.4 -3.7 -7.7 0.1 -0.3 -0.8 -1.8 -1.9 -3.5 -5.4 -7.6 -9.8 -17.9 -20.5 -48.5 -1.1 -3 -2.4 -5.9 -2.9 -6.4 -1.8 -1.8 -11.2 6.7 -17.5 16 -1.9 2.8 -6.4 8.4 -10 12.5 -3.6 4.1 -8.1 10.2 -10 13.7 -1.9 3.4 -5.1 9.1 -7 12.6 -4.6 8.4 -8.6 12.6 -11.9 12.6 -1.8 0 -3 0.8 -4.1 3 -1.9 3.6 -4.4 3.9 -8.8 0.8 -5.3 -3.5 -5.9 -4.8 -4.1 -7.6 1.5 -2.2 1.5 -2.7 -0.3 -5.9 l-1.8 -3.4 4.4 -8.2 c10.5 -19.8 17.5 -30.1 30.4 -45.1 2.3 -2.6 8.3 -9.6 13.2 -15.4 9.4 -11.1 13.9 -14.4 30.5 -22.3 3.6 -1.8 7.5 -4.2 8.7 -5.5 2.8 -3.1 5.8 -3 9.5 0.1 5 4.2 8.8 2.8 5.3 -1.9 -0.8 -1.1 -1.5 -2.7 -1.5 -3.6 0 -1.9 4.8 -4.9 8.7 -5.4 1.5 -0.1 4.5 -0.9 6.6 -1.5 2.8 -1 4.2 -1 5 -0.2 0.7 0.7 0 1.5 -2.5 2.6 l-3.6 1.5 1.9 3.9 c2.9 6.1 2.5 8.8 -2 13.1 -4.2 4 -8.7 5.4 -14.2 4.4 -4 -0.8 -8.7 -3.4 -11.1 -6.3 l-1.7 -2 -4.8 2.1 c-6 2.6 -19.9 10.5 -23.4 13.2 -1.5 1.2 -6.4 6.6 -11 12.1 -4.6 5.5 -11.3 13.4 -14.9 17.5 -8.1 9.3 -18 24.1 -25.1 37.8 l-5.4 10.3 3 2.5 c3.9 3.3 9.9 6.4 12.3 6.4 2.7 0 7.2 -5.2 7.2 -8.2 0 -1.7 1.5 -4.4 4 -7.3 2.3 -2.6 5.4 -7.3 7 -10.4 1.5 -3.1 5.3 -8.2 8.3 -11.3 3 -3.2 7.2 -8.3 9.3 -11.5 7.1 -10.7 20.8 -22.4 23.2 -19.8 0.5 0.6 4.2 10 8.2 21 7.8 21.6 21.9 50.2 27.3 55.5 8.5 8.3 14.6 10.1 19 5.9 2.7 -2.6 11.5 -6.7 15.9 -7.4 4.7 -0.8 18.7 -7.9 22.4 -11.3 1.6 -1.6 7.5 -5.2 13 -7.9 9.6 -4.8 9.9 -5.1 9.7 -8.2 0 -1.9 -2.2 -6.6 -5.1 -11.4 -2.7 -4.5 -5.7 -10.2 -6.6 -12.7 -2.4 -6.2 -7.4 -14.7 -9.5 -16.2 -2.6 -2 -7.4 -9.3 -12.5 -19.6 -2.6 -5.2 -6.3 -11.6 -8.3 -14.4 l-3.5 -5.1 2.8 -2.2 c6.6 -5.3 19.4 -5.8 32.6 -1.4 5.1 1.7 10.2 3.3 11.3 3.5 1.1 0.2 8.3 1.7 16 3.3 22.6 4.7 28.5 3.5 28.5 -5.7 0 -5.9 -2.3 -10.5 -7 -13.7 -3.4 -2.4 -5.1 -2.7 -17.7 -3.6 -7.6 -0.5 -17.3 -1.9 -21.7 -2.9 -4.3 -1.1 -8.8 -2 -10 -2 -1.2 0 -4.6 -0.6 -7.6 -1.4 -13.4 -3.5 -35.8 -0.9 -48.7 5.6 -3.2 1.6 -4.3 0 -1.6 -2.2 2.5 -2 13.2 -5.5 23.7 -7.7 8.4 -1.7 15.8 -1.1 35.6 2.8 8 1.6 20.4 3.4 27.5 3.9 7.2 0.6 14.8 1.5 17 2.1 4.2 1.2 12.5 8.7 12.5 11.4 0 1.5 0.5 1.7 4.5 1.9 1 0.1 2.6 1.3 3.4 2.8 2 3.6 0.2 7.8 -3.3 7.8 -1.4 0 -3.2 0.8 -4.2 1.8 -5.5 5.6 -9.8 6.2 -24.2 3.7 -10.8 -1.9 -34.8 -8 -40.2 -10.1 -6.8 -2.7 -24 -0.6 -24 2.9 0 0.8 1.2 3.2 2.6 5.3 1.5 2.1 4.3 7.3 6.3 11.4 4.6 9.4 6.5 12.3 11.8 18.3 2.3 2.6 6.9 10.3 10.3 17 3.3 6.7 7.6 14.9 9.5 18.2 2 3.5 3.5 7.4 3.5 9.3 0 1.8 0.4 4.1 0.9 5.1 0.5 0.9 1.1 3.5 1.3 5.6 0.3 3.8 0.1 4 -5.7 7.7 -3.3 2.1 -8.5 5.1 -11.5 6.8 -3 1.7 -8.6 5.2 -12.4 8 -8.8 6.2 -14.9 8.9 -22.7 9.7 -4.5 0.4 -6.7 1.2 -8.4 2.9 -3.3 3.3 -8.7 6.4 -11.1 6.4 -1.6 0 -2.5 -1.1 -3.7 -4.2z m6.6 0.1 c1.2 -0.6 3.7 -2.5 5.5 -4.3 2.8 -2.6 4.6 -3.3 11 -4.2 8.7 -1.3 11.8 -2.6 23.4 -10.5 4.6 -3.1 9.5 -6.3 10.9 -7 8.3 -4.4 11.6 -6.3 13.2 -7.7 2 -1.8 2.3 -7 0.4 -7.8 -1.8 -0.6 -16.8 6.8 -20.3 10.1 -5.1 4.7 -13.8 9.3 -22.9 12 -9.8 2.9 -13.8 4.7 -17.2 7.8 -1.2 1 -3.7 2.2 -5.5 2.6 -2.9 0.7 -3.3 1.1 -3.2 3.9 0.2 3.6 1 6.2 1.9 6.2 0.4 0 1.6 -0.5 2.8 -1.1z m-117.3 -24.7 c0 -0.9 -1.4 -2.5 -3 -3.4 -2.8 -1.6 -3 -1.6 -4 0.1 -0.7 1.4 -0.5 2.2 0.8 3.3 3.4 3 6.2 3 6.2 0z m99.2 -102.4 c3.8 -2.6 4.2 -5.1 1.9 -10.3 -1.5 -3.5 -2.5 -4.5 -4.3 -4.5 -4.6 0 -5.4 1.4 -3.3 5.9 2 4.6 1.2 6.5 -3 7.3 -2.2 0.5 -4.2 -0.5 -9.7 -4.4 -2.4 -1.7 -3.4 -0.3 -1.9 2.6 1.6 2.8 4.7 4.6 9.8 5.6 4.5 0.9 6.9 0.4 10.5 -2.2z m134.6 -3.5 c0.5 -1.7 -2.6 -2.9 -4 -1.5 -0.6 0.6 -0.7 1.5 -0.3 2.2 0.9 1.4 3.7 0.9 4.3 -0.7z"/>
  <path d="M216 154 c-18.7 -12.7 -64.7 -34.7 -100.2 -48.1 -4.9 -1.8 -8.8 -3.6 -8.8 -4.1 0 -1.3 0.9 -1.1 17 5.1 41.2 15.7 101.8 46.5 102 51.9 0 1.8 -0.8 1.4 -10 -4.8z"/>
  <path d="M1067.2 155.7 c0.5 -2.3 10.9 -14 24.5 -27.4 6.8 -6.8 12.6 -12.3 12.8 -12.3 2.2 0 -0.9 4.1 -8.8 11.6 -5.1 4.9 -13.3 13.4 -18.1 18.9 -8.9 10.1 -11.1 12 -10.4 9.2z"/>
  <path d="M229 151.3 c-0.8 -0.3 -5.8 -3.1 -11 -6.1 -5.2 -3.1 -14.9 -8.1 -21.5 -11.2 -6.6 -3 -12 -6 -12 -6.5 0 -0.5 0.6 -0.8 1.4 -0.7 2.4 0.6 29.3 13.9 35.6 17.6 3.3 2 7 4.1 8.3 4.6 1.3 0.6 2 1.4 1.7 2 -0.3 0.5 -0.7 1 -0.8 0.9 -0.1 0 -0.9 -0.3 -1.7 -0.6z"/>
  <path d="M773.7 150.3 c-1.4 -1.3 -0.6 -2.5 1.3 -2 2.3 0.6 4.3 -1.4 3.4 -3.7 -0.3 -0.9 -0.3 -2.4 0 -3.3 0.6 -1.4 1 -1.1 2.6 1.5 2.2 3.5 3.5 4 4.4 1.6 0.8 -2.2 2.5 -0.8 1.9 1.6 -0.5 2 -3.6 3.5 -5.2 2.6 -0.5 -0.3 -1.4 0.1 -2.1 0.9 -1.3 1.5 -5.1 2 -6.3 0.8z"/>
  <path d="M751 140.2 c0 -1.2 3.4 -4.2 4.8 -4.2 2 0 1.3 1.7 -1.3 3.4 -2.7 1.8 -3.5 2 -3.5 0.8z"/>
  <path d="M750.9 134 c2.4 -2.1 4.1 -2.6 4.1 -1.2 0 1.5 -2.4 3.2 -4.4 3.2 -2 -0.1 -2 -0.1 0.3 -2z"/>
  <path d="M805.3 133.8 c-4.9 -1.3 -5.5 -3.3 -0.8 -2.5 3.9 0.6 6.3 2.1 4.8 2.9 -0.4 0.3 -2.2 0.1 -4 -0.4z"/>
  <path d="M749.7 129.3 c-3.5 -0.5 -2.5 -2.3 1.3 -2.3 3.6 0 6.1 1 5.4 2.1 -0.5 0.9 -1.7 0.9 -6.7 0.2z"/>
  <path d="M806.2 129.2 c-1.8 -0.2 -3 -0.8 -2.7 -1.3 0.8 -1.2 6.2 -1.2 7 0 0.8 1.3 -0.5 1.7 -4.3 1.3z"/>
  <path d="M804 122.7 c0 -0.8 1.1 -1.9 2.5 -2.5 2.9 -1.4 3.3 -0.2 0.7 2.1 -2.2 2 -3.2 2.1 -3.2 0.4z"/>
  <path d="M160.4 114.5 c-14.9 -5.7 -30.7 -12.5 -31.8 -13.6 -2.5 -2.4 1 -1.7 8.6 1.7 4.5 2 14.5 6 22.1 8.9 12.2 4.6 15.8 6.5 13 7.1 -0.4 0.1 -5.8 -1.7 -11.9 -4.1z"/>
  <path d="M749.6 116.8 c-3.1 -4.4 -1.6 -10.8 2.6 -10.8 2.1 0 4.4 6.7 3.4 10.4 -0.8 3.3 -3.9 3.4 -6 0.4z"/>
  <path d="M792.6 111.5 c-2.4 -4.9 -1.8 -9.9 1.1 -10.3 4.4 -0.6 8.8 11.6 4.7 13.2 -3 1.2 -4.2 0.6 -5.8 -2.9z"/>
  <path d="M812.8 109.5 c-0.3 -1.4 -0.1 -2.5 0.3 -2.5 0.5 0 0.9 1.1 0.9 2.5 0 1.4 -0.2 2.5 -0.4 2.5 -0.2 0 -0.6 -1.1 -0.8 -2.5z"/>
  <path d="M1130.9 105.8 c-2.2 -4.1 -10.2 -11.9 -15.1 -14.5 -2.6 -1.4 -4.8 -2.9 -4.8 -3.2 0.1 -1.3 7.1 -8.1 8.5 -8.1 4.8 0 19.1 10.4 22 16.1 1.3 2.4 1.1 2.8 -2.9 7.2 -4.8 5.3 -6 5.7 -7.7 2.5z m6.5 -4.4 l2.8 -3.6 -3.8 -4 c-5.1 -5.2 -11.6 -9.7 -15.1 -10.3 -2.2 -0.4 -3.2 0 -4.5 1.9 -1.7 2.4 -1.7 2.4 3.7 6 3 2 7.1 5.8 9.2 8.6 2 2.7 4 5 4.3 5 0.3 0 1.8 -1.6 3.4 -3.6z"/>
  <path d="M1132.2 96.7 c-3.4 -3.5 -3.9 -4.7 -2.1 -4.7 1.2 0 6.9 6 6.9 7.3 0 1.5 -1.7 0.6 -4.8 -2.6z"/>
  <path d="M1119.5 87.9 c-0.4 -0.6 -0.4 -1.3 -0.1 -1.6 0.8 -0.8 3.6 0.5 3.6 1.7 0 1.3 -2.7 1.3 -3.5 -0.1z"/>
  <path d="M148.2 100.3 c-6.2 -2.2 -3.8 -3.6 2.6 -1.5 5.1 1.7 6.9 3.3 3.5 3.1 -1 0 -3.8 -0.7 -6.1 -1.6z"/>
  <path d="M70.7 91.8 c-12.7 -12.6 -16.7 -18.6 -14.7 -21.8 0.8 -1.2 3.6 -1.5 15.2 -1.5 14.8 0.1 19.8 0.7 19.8 2.6 0 0.8 -1.7 0.9 -5.2 0.5 -16 -1.8 -19.8 -1.9 -20.1 -0.5 -0.2 0.8 -0.9 3 -1.5 4.8 -1.5 4.3 -0.9 5.3 8.7 14.6 3.9 3.9 7.1 7.3 7.1 7.7 0 2 -2.6 0.2 -9.3 -6.4z"/>
  <path d="M750.5 96.1 c-2 -0.5 1.9 -0.9 11.5 -1.4 12.1 -0.5 16.3 -1.1 25 -3.7 5.8 -1.7 12 -4.1 13.9 -5.2 2.4 -1.5 3.2 -1.7 2.9 -0.7 -0.6 1.8 -14.2 7.4 -23.1 9.4 -8.1 1.8 -25.6 2.8 -30.2 1.6z"/>
  <path d="M741.7 93.3 c-1.5 -1.4 -0.6 -3.4 1.9 -4.4 3.1 -1.1 4.7 -0.2 2.1 1.3 -1.4 0.8 -1.6 1.3 -0.6 2.4 0.9 1.1 0.8 1.4 -0.8 1.4 -1.1 0 -2.3 -0.3 -2.6 -0.7z"/>
 </g>
</svg>